<svg preserveAspectRatio="none" width="100%" height="100%" overflow="visible" style="display: block;" viewBox="0 0 101.902 128.61" fill="none" xmlns="http://www.w3.org/2000/svg">
<g id="Group 28427512">
<path id="Vector" d="M8.14381 85.3208C11.7746 86.5222 15.2661 84.8145 18.3315 83.2167C18.34 85.6757 18.4338 88.1457 18.6276 90.6056C14.6164 91.8612 10.9548 94.4479 9.34582 98.4498C4.5908 109.535 12.5694 124.968 24.9732 126.897C32.1227 127.995 38.3657 123.03 40.8844 116.756C48.0405 119.491 56.031 119.98 63.1313 117.541C65.8666 123.751 72.3675 128.728 79.2418 127.982C92.1691 126.59 99.8377 110.252 93.2174 98.7873C91.4278 95.4026 88.0509 93.263 84.5245 92.1124C84.6231 89.546 84.6123 86.9773 84.4314 84.4051C86.9927 85.8917 89.7326 87.4915 92.7535 87.4083C96.2503 87.4231 99.5183 85.0474 100.43 81.6853C101.886 77.1812 99.5228 72.2386 96.1397 69.0673C89.7352 63.0242 81.5418 58.9038 72.9988 57.4055C81.144 50.2742 84.5849 38.2246 81.1364 27.5109C85.4816 25.6596 88.7389 21.5977 88.9931 16.7217C89.82 9.28607 83.2655 1.72441 75.7379 1.58314C70.5186 1.27075 65.9574 4.56606 63.6274 8.9607C54.7415 5.28239 44.7643 4.94109 35.9435 8.06264C33.8784 5.60341 31.9149 2.76589 28.7595 1.63822C21.7996 -1.44924 13.1069 2.57577 11.2421 9.76766C9.11455 16.1568 12.9132 23.8346 19.2379 26.4737C16.1578 37.0243 20.3201 49.1985 28.7399 56.6163C20.8281 57.8669 13.2094 61.0926 7.24232 66.3246C4.40741 68.7824 1.91968 72.0143 1.6461 75.9587C1.18018 80.0026 4.02104 84.4195 8.13767 85.3176L8.14381 85.3208ZM75.7892 7.41803C80.3278 7.57324 83.9028 12.2337 83.3103 16.6188C83.1635 19.3546 81.1312 21.2539 79.1836 22.8476C76.5566 18.1978 72.623 14.5555 68.4161 11.3579C70.171 9.11499 72.6765 7.03074 75.7891 7.41498L75.7892 7.41803ZM78.0265 98.1094C81.9053 96.6228 87.0199 98.3298 88.9549 102.277C93.1831 110.308 87.7737 121.185 79.0843 122.59C75.1009 123.134 70.9505 120.461 69.5768 116.628C67.004 109.317 71.0428 100.755 78.0265 98.1094ZM60.6016 29.1534C62.7773 28.0117 65.9405 30.3995 65.1042 32.841C64.6084 35.0096 61.715 35.9659 60.04 34.2969C58.2681 32.9362 58.6714 29.9775 60.6016 29.1534ZM36.9397 28.695C39.1245 27.1123 42.4253 29.9776 41.5283 32.427C41.0389 34.6049 37.9941 35.4393 36.4676 33.6091C34.9077 32.2194 35.0377 29.5532 36.9397 28.6919L36.9397 28.695ZM35.7968 44.1763C37.5421 39.4226 42.2131 36.443 47.1587 35.8581C53.7268 34.7073 61.7493 37.9082 64.4176 44.5491C66.5014 49.0842 65.6542 54.8091 62.0155 58.0567C56.224 62.8206 47.2008 63.0652 40.7109 58.7672C35.9848 55.7261 33.6935 49.2452 35.7968 44.1763ZM37.6766 78.5519C39.7729 74.7549 43.5602 72.0795 47.8318 71.2249C52.7828 70.0223 58.2908 71.9506 62.0464 75.504C67.3198 80.9118 69.4266 89.3336 66.7408 96.1949C65.3882 99.5235 63.6017 102.733 61.1498 105.345C56.54 109.963 48.4395 109.88 43.2892 105.577C35.7468 99.0108 32.6735 87.051 37.6766 78.5519ZM20.9417 21.6217C19.1511 20.0933 17.2867 18.3747 16.7211 16.0075C15.1245 10.7948 20.2365 5.20419 25.536 6.44946C27.8725 6.91191 29.5275 8.78745 30.977 10.5644C26.8232 13.436 23.2841 17.0934 20.9417 21.6217ZM32.5258 119.02C30.1578 121.582 26.0545 122.352 22.7719 120.801C16.5773 117.994 12.4103 110.863 13.3721 104.218C13.8814 101.091 15.7502 98.0443 18.7887 96.9054C30.1765 93.4963 39.5762 110.512 32.5259 119.023L32.5258 119.02Z" fill="var(--fill-0, #AD4B49)"/>
<path id="Vector_2" d="M47.5023 51.9573C45.7855 53.2515 44.0683 50.8695 42.4404 50.3C42.5953 51.6179 42.2422 53.3391 43.8517 53.8991C46.0686 55.4789 48.543 54.0909 50.5295 53.0549C52.3463 53.7957 54.387 55.3719 56.3368 54.329C57.9456 53.9729 57.9419 52.1834 58.3799 50.8961C56.3033 51.5407 53.4703 53.6517 52.1516 50.5628C50.094 46.4178 57.1706 45.7584 56.1472 41.6775C55.0374 39.1377 51.8138 38.8242 49.4456 38.8845C47.3123 38.8493 44.485 39.6213 44.2389 42.1086C44.619 44.9071 47.4286 46.2102 49.1038 48.1775C49.0048 49.557 48.7438 51.1797 47.4993 51.9603L47.5023 51.9573Z" fill="var(--fill-0, #AD4B49)"/>
</g>
</svg>
