<svg preserveAspectRatio="none" width="100%" height="100%" overflow="visible" style="display: block;" viewBox="0 0 113.869 103.852" fill="none" xmlns="http://www.w3.org/2000/svg">
<g id="Group">
<path id="Vector" d="M36.5629 11.2238C41.6345 15.6007 43.9073 22.2372 44.4246 28.7051C45.0355 33.0435 44.2017 37.8373 46.8062 41.6575C49.0311 40.509 52.273 39.5704 52.5806 36.7219C53.5716 26.139 51.7297 14.3672 43.8676 6.60146C39.2861 1.9552 32.4579 -0.521013 25.7393 0.533071C26.9128 2.94354 28.0494 5.37221 29.1214 7.83126C31.7385 8.64075 34.5192 9.35061 36.5598 11.2238L36.5629 11.2238Z" fill="var(--fill-0, #AD4B49)"/>
<path id="Vector_2" d="M22.0148 8.24779C23.6881 8.12125 25.3619 7.9592 27.0543 7.78507C26.0637 5.67733 24.9904 3.57946 23.4692 1.79183C22.7849 3.90179 22.3662 6.06779 22.0147 8.25075L22.0148 8.24779Z" fill="var(--fill-0, #AD4B49)"/>
<path id="Vector_3" d="M84.8209 67.2448C83.6466 65.6336 84.8108 63.8465 85.3941 62.2321C86.8525 58.6861 87.1831 54.7213 86.2668 51.0645C85.0588 47.2276 81.6449 44.7284 78.3176 42.6574C76.9324 44.2488 75.1784 45.4479 73.5334 46.7464C71.7878 49.2568 71.1749 52.5234 68.6275 54.4986C64.514 58.0764 57.7329 57.4971 54.2472 53.6223C51.7182 51.1303 51.1845 47.4748 49.2658 44.6528C46.5905 43.5954 43.7524 42.081 43.2973 39.0166C42.1888 32.8192 43.0198 26.2612 40.5085 20.3469C38.3482 14.2775 32.2502 8.71087 25.1294 9.84968C19.6094 10.5431 15.937 15.0984 12.1581 18.6129C15.2771 23.6644 18.0009 28.9841 19.6881 34.6862C21.1138 34.53 22.559 34.2878 24.015 34.4037C25.9285 36.1629 25.0418 39.0331 25.1757 41.3346C24.5236 48.5181 25.8059 56.016 30.124 61.9087C26.1352 68.537 22.0126 75.0929 18.1577 81.7847C20.9204 83.9542 24.2376 85.3503 27.1059 87.3942C31.8555 82.6366 35.9659 77.3183 40.3611 72.2511C41.4926 71.1246 42.4083 68.8787 44.3971 69.4884C52.1343 70.7579 60.0337 70.0449 67.8138 69.3245C72.7341 75.5416 77.9512 81.5331 82.8993 87.741C86.383 86.0654 89.7678 84.2133 93.2006 82.4465C90.4496 77.3492 87.5074 72.3636 84.824 67.2418L84.8209 67.2448ZM22.7145 23.4188C19.0365 23.4627 19.1108 17.9439 22.7826 17.9001C26.4544 17.8562 26.3863 23.375 22.7145 23.4188Z" fill="var(--fill-0, #AD4B49)"/>
<path id="Vector_4" d="M10.508 20.2976C8.54368 21.9196 6.59302 23.6746 5.48092 25.9584C3.75088 29.188 4.80709 33.6691 8.14475 35.3936C11.0683 36.9336 14.6075 36.2164 17.6751 35.2621C16.0073 29.9713 13.7959 24.8172 10.508 20.2976ZM9.4783 30.5465C7.89505 30.5654 7.92741 28.1909 9.5076 28.172C11.0878 28.1532 11.0585 30.5277 9.4783 30.5465Z" fill="var(--fill-0, #AD4B49)"/>
<path id="Vector_5" d="M56.1449 52.5954C59.2857 55.8823 65.703 55.6726 68.4785 51.8385C70.2729 49.5998 70.3402 46.1266 73.1561 44.7224C75.0426 43.9569 75.677 42.1702 76.0572 40.3924C68.3855 40.0222 60.6788 40.2532 53.001 40.3774C51.638 40.1628 50.3144 41.7208 51.127 42.8656C52.5616 46.2055 53.4184 49.9726 56.1418 52.5954L56.1449 52.5954Z" fill="var(--fill-0, #AD4B49)"/>
<path id="Vector_6" d="M103.172 43.7856C98.0361 38.8825 89.4288 39.6364 83.7846 43.6942C85.0542 45.2717 86.1506 46.9904 87.4078 48.5828C88.7946 49.5964 91.0386 48.8858 92.2304 50.3162C94.7115 53.2232 94.7187 57.3468 96.8913 60.438C98.9667 63.711 103.345 65.0117 107.18 64.3561C109.675 63.8882 111.692 62.2745 113.615 60.7329C107.858 56.5477 108.11 48.5756 103.169 43.7856L103.172 43.7856Z" fill="var(--fill-0, #AD4B49)"/>
<path id="Vector_7" d="M106.442 74.8283C104.75 75.7721 103.404 77.1558 101.962 78.3956C96.9936 82.7354 91.2052 86.0696 85.2422 88.9116C63.3916 98.8879 36.5927 96.7239 17.1347 83.771C13.5451 81.6202 10.5773 78.7043 7.39459 76.0869C6.12048 74.8736 4.07728 74.6996 2.52948 75.5677C0.127481 76.6768 -0.520587 80.0652 1.54108 81.722C15.0747 95.1334 34.3596 102.757 53.9083 103.148C73.9632 103.708 94.3221 96.2513 109.245 82.9178C110.55 81.6649 112.281 80.2825 112.073 78.3312C112.081 75.6935 108.938 73.8334 106.442 74.8283Z" fill="var(--fill-0, #AD4B49)"/>
</g>
</svg>
