<svg preserveAspectRatio="none" width="100%" height="100%" overflow="visible" style="display: block;" viewBox="0 0 112.907 81.7543" fill="none" xmlns="http://www.w3.org/2000/svg">
<g id="Group">
<path id="Vector" d="M22.3826 56.3026C15.1549 57.5187 9.90779 65.6965 12.5214 72.7073C14.3208 79.1444 21.7094 83.1895 28.1023 81.2756C34.6967 79.5555 39.1791 72.0908 37.1134 65.4909C35.5207 59.2347 28.7548 54.8073 22.3826 56.3026ZM21.4625 73.1685C18.294 70.9872 18.9212 65.6099 22.4044 64.1064C25.7867 62.2722 30.3094 65.1153 30.2091 68.9448C30.4837 73.2783 24.7034 75.8693 21.4625 73.1685Z" fill="var(--fill-0, #7AABC4)"/>
<path id="Vector_2" d="M83.0121 56.311C77.3246 57.2896 72.8341 62.4855 72.5894 68.2376C72.0142 75.3488 78.4807 81.9597 85.5844 81.6713C92.776 81.6722 99.0958 74.7762 98.2885 67.6002C97.7319 60.3364 90.1725 54.5755 83.0095 56.311L83.0121 56.311ZM82.5391 73.4665C79.0244 71.5073 79.3853 65.7268 83.0494 64.1304C86.4473 62.26 90.9983 65.0824 90.8826 68.9403C91.1003 73.0723 85.8807 75.728 82.5391 73.4665Z" fill="var(--fill-0, #7AABC4)"/>
<path id="Vector_3" d="M111.755 58.6694C110.695 57.286 108.399 56.673 108.564 54.5994C108.181 50.2066 106.365 45.8704 103.239 42.7209C99.3778 38.7956 93.816 37.4607 88.624 36.3509C86.6916 29.075 84.1204 21.5689 78.7313 16.0946C73.5439 10.8505 65.8024 9.45336 58.7178 9.34386L58.7173 5.70605L66.1302 5.707C66.9447 5.70711 67.6039 5.04787 67.6038 4.23343L67.6034 1.48247C67.6033 0.668031 66.9439 0.00862007 66.1294 0.00851519L46.7659 0.00602184C45.9514 0.00591696 45.2922 0.665158 45.2923 1.4796L45.2927 4.23056C45.2928 5.04499 45.9522 5.7044 46.7667 5.70451L53.9469 5.70543L53.9474 9.3898C47.3076 9.58285 40.3578 11.3246 35.4639 16.0606C29.7608 21.4559 27.4762 29.3052 26.1017 36.7953C19.9429 37.6865 13.086 38.4225 8.44035 43.037C4.60124 46.6304 3.36347 52.0107 3.06941 57.0757C0.109234 59.4669 -1.29408 64.2784 1.58669 67.2754C3.56761 69.7603 6.95988 69.5745 9.80661 69.4456C10.1577 65.4045 11.3905 61.2498 14.5161 58.4681C18.9601 54.1897 26.2048 52.8798 31.6944 55.8926C36.716 58.4141 39.654 63.9889 39.678 69.5141C49.8912 69.4792 60.1069 69.4883 70.32 69.5026C70.5364 63.8636 73.553 58.2224 78.804 55.8108C83.8973 53.1458 90.4803 53.9119 94.897 57.5555C98.3337 60.4879 100.186 64.9094 100.388 69.3772C103.679 69.4138 107.439 70.0115 110.184 67.7366C113.101 65.8289 113.749 61.4491 111.76 58.6694L111.755 58.6694ZM32.5683 37.0159C33.4906 31.1882 35.2893 25.1616 39.5394 20.8547C43.2829 17.0053 48.6762 15.3151 53.9456 15.0598L53.9487 37.0703C46.8227 37.0591 39.6917 37.1305 32.5683 37.0159ZM58.7527 37.0037C58.6999 29.6789 58.7067 22.3593 58.7858 15.0346C64.0372 15.0353 69.6843 16.0366 73.6976 19.6956C78.6471 24.1175 80.8302 30.6746 82.2506 36.968C74.4136 37.0523 66.5844 36.9659 58.7553 37.0011L58.7527 37.0037Z" fill="var(--fill-0, #7AABC4)"/>
</g>
</svg>
