<svg preserveAspectRatio="none" width="100%" height="100%" overflow="visible" style="display: block;" viewBox="0 0 87.9309 71.9871" fill="none" xmlns="http://www.w3.org/2000/svg">
<g id="Group 28427518">
<path id="Vector" d="M83.234 31.1959C80.8624 32.6432 78.5152 34.283 75.6171 34.6187C72.5402 35.3983 69.8027 33.3646 67.022 32.3738C61.6969 30.1413 55.7167 29.7015 50.1584 30.83C48.0822 31.2244 46.1811 32.1698 44.0991 32.4993C42.8804 32.6359 42.2447 31.3952 41.7624 30.5295C42.3816 29.0232 43.3751 27.717 44.1021 26.2656C46.3855 21.7486 46.8829 16.2397 44.9442 11.3951C42.628 5.23514 36.2794 0.691776 29.6168 0.287911C24.4553 0.00392874 19.2349 2.05148 15.8923 5.79115C13.0297 8.87399 11.9636 13.1641 12.1804 17.3116C15.5676 19.0381 18.6276 21.7662 20.2581 25.1553C21.1759 27.858 18.464 29.608 16.1439 30.082C17.1202 31.0385 18.1155 31.9884 19.1061 32.9497C16.5914 35.7486 14.1778 38.7804 13.1688 42.4581C11.1708 48.6478 12.3967 55.8557 16.7397 61.0513C21.3325 66.5423 28.4843 69.3253 35.4287 70.4045C44.2724 71.6466 53.2158 71.6522 62.0349 70.8531C67.5098 70.3227 73.0642 68.9443 77.3863 65.5989C86.8242 58.5291 89.4948 45.2435 86.042 34.2464C85.5113 33.019 84.9519 31.0252 83.2363 31.1936L83.234 31.1959ZM24.3877 15.8603C23.7339 17.7385 20.5793 17.8019 19.7669 15.9061C18.9288 14.5074 19.8619 12.6842 21.4356 12.4188C23.3301 11.8157 25.4135 14.1797 24.3854 15.8602L24.3877 15.8603ZM69.2777 52.8561C70.5148 56.0472 67.9971 58.8113 65.4218 60.3204C59.6597 63.6509 52.4799 64.1139 45.8717 62.9264C40.9038 61.9304 35.5083 59.4562 33.4433 54.6028C31.1935 49.8044 33.3171 43.4223 38.4265 41.5859C39.8376 41.1167 42.1914 40.2059 42.9756 42.1244C41.1628 42.775 39.074 42.8197 37.5024 43.9877C34.5328 46.1549 33.3663 50.411 34.9896 53.8C35.9355 56.1676 37.8599 58.0988 40.1933 59.2424C46.7898 62.5909 54.7246 62.6206 61.5116 60.3122C64.3724 59.254 67.4071 57.4487 68.0602 54.3001C67.0504 53.7943 66.0364 53.3208 65.0341 52.8359C69.2405 51.6939 72.6416 47.4276 70.8744 43.0553C68.6424 44.4469 66.3207 46.0478 63.5015 45.9473C59.0988 45.9455 54.5568 44.6389 50.8147 42.2753C51.1311 42.1181 51.7547 41.8129 52.0711 41.6557C55.8011 42.7765 59.4568 44.6366 63.4508 44.3731C66.2779 44.5199 68.5036 42.7163 70.8314 41.5136C71.712 42.2812 72.9483 42.971 73.0752 44.2432C73.5386 47.5707 71.6717 50.7079 69.2777 52.8561Z" fill="var(--fill-0, #7AABC4)"/>
<path id="Vector_2" d="M18.7689 26.3081C17.5887 23.2613 14.8493 20.6468 11.9352 19.1913C8.03608 20.3518 3.88364 20.68 0.0462133 21.9826C2.6289 25.9993 7.77812 27.1786 12.2048 27.9605C14.4087 28.1234 17.685 28.689 18.7688 26.3058L18.7689 26.3081Z" fill="var(--fill-0, #7AABC4)"/>
</g>
</svg>
