<svg preserveAspectRatio="none" width="100%" height="100%" overflow="visible" style="display: block;" viewBox="0 0 74.7455 66.9466" fill="none" xmlns="http://www.w3.org/2000/svg">
<g id="Group">
<path id="Vector" d="M72.4041 4.54198C68.3951 8.67937 64.1862 12.6602 60.1398 16.7752C58.4856 18.214 57.1803 20.105 55.1425 21.099C45.5847 21.094 36.0641 19.9584 26.525 19.444C18.4482 18.7979 10.3555 18.3805 2.27344 17.7593C6.79129 12.8988 11.5995 8.27184 16.3065 3.57535C18.022 1.91542 19.9853 -0.0725123 22.6784 0.0020352C26.8872 0.148645 31.1121 0.250543 35.289 0.732617L47.2123 1.40353L47.3535 1.41348C54.4845 1.76137 61.6129 2.22605 68.744 2.62861C69.9987 2.99141 72.532 2.81 72.4068 4.54198H72.4041Z" fill="var(--fill-0, #E3D5B7)"/>
<path id="Vector_2" d="M73.9822 5.6875C68.3136 10.471 63.4228 15.995 58.0792 21.0841C57.4638 21.8395 56.3503 22.4831 56.3876 23.5342C56.5288 37.2062 56.3956 50.8782 56.5288 64.5502C61.6061 60.3209 66.3024 55.7163 71.1559 51.2659C72.5944 49.8271 74.5336 48.366 74.5257 46.2115C74.6375 36.0631 74.5097 25.9147 74.5843 15.7738C74.6882 12.4018 75.1037 8.95517 73.9822 5.6875Z" fill="var(--fill-0, #E3D5B7)"/>
<path id="Vector_3" d="M8.59033 64.2452C22.4742 64.9658 36.3235 66.1287 50.1994 66.904C52.3518 67.2221 54.8158 65.7212 54.7545 63.5543C54.8744 51.3087 54.7545 39.0556 54.7918 26.8099C54.7332 25.6942 54.8877 24.2007 53.6863 23.5621C50.8653 21.9569 47.3864 22.5731 44.2537 22.2252C31.1343 21.1666 17.999 20.3417 4.85563 19.5042C3.74215 19.5937 2.33299 19.1365 1.44327 19.9615C0.196593 20.9803 -0.0111869 22.6054 0.0101238 24.0666C0.0181152 35.3779 0.0474174 46.6967 0.0101238 58.008C-0.0644635 59.6133 0.255206 61.3378 1.56847 62.4933C3.35591 64.2924 6.2062 63.9743 8.58766 64.2452H8.59033ZM12.0773 37.1297C15.3138 36.4588 18.6383 36.2501 21.9334 35.9395C23.7742 33.3502 25.0501 30.4577 26.9947 27.938C27.6021 27.0584 29.0938 26.6359 29.6373 27.8337C31.462 30.5 32.6208 33.4894 34.2004 36.2799C38.0896 37.3658 42.2585 37.4503 45.9852 39.0705C44.5228 42.5866 40.2127 43.9235 37.9324 46.8855C37.8578 49.855 38.7715 52.7549 38.7795 55.7194C38.8248 56.5916 38.4172 57.2079 37.5488 57.5806C34.0379 56.3904 31.0997 54.139 27.7299 52.6804C24.3522 53.5054 21.422 55.4361 18.1348 56.5146C17.2078 57.019 15.9612 56.0101 16.1982 55.0758C16.3394 52.0914 17.357 49.2189 17.698 46.2643C15.7694 43.5582 12.5488 41.8958 10.6468 39.1748C9.98617 38.2827 11.121 37.2217 12.0799 37.1322L12.0773 37.1297Z" fill="var(--fill-0, #E3D5B7)"/>
</g>
</svg>
