<svg preserveAspectRatio="none" width="100%" height="100%" overflow="visible" style="display: block;" viewBox="0 0 142.614 97.2061" fill="none" xmlns="http://www.w3.org/2000/svg">
<g id="Group">
<path id="Vector" d="M122.074 7.02069C121.643 5.9255 121.14 4.85879 120.555 3.83769C119.835 2.57627 118.95 1.34525 117.658 0.662796C114.309 -1.11515 111.153 2.38345 110.799 5.56443C110.602 7.34781 111.011 9.1187 111.587 10.7883C112.863 14.503 114.934 17.867 117.04 21.1662C117.885 22.4893 118.747 23.8187 119.825 24.9613C120.956 26.1603 122.24 26.8733 123.73 27.5415C124.135 25.6154 124.132 23.4952 124.197 21.5424C124.261 19.4646 124.22 17.3823 124.01 15.3237C123.722 12.4766 123.11 9.65991 122.074 7.02407L122.074 7.02069Z" fill="var(--fill-0, #E3D5B7)"/>
<path id="Vector_2" d="M79.6685 22.8988C78.0623 23.0601 76.4779 23.481 75.0165 24.2201C72.5623 25.4624 69.29 27.0119 68.5033 29.8878C68.2262 30.903 68.3199 31.9612 68.4484 32.9884C68.6821 34.854 69.0286 36.7039 69.485 38.5177C77.921 34.9881 86.3118 31.3379 94.6505 27.5707C91.5255 25.6767 88.2443 23.9176 84.6212 23.1751C83.0218 22.8467 81.3327 22.7329 79.6685 22.8988Z" fill="var(--fill-0, #E3D5B7)"/>
<path id="Vector_3" d="M121.45 32.4283C119.652 25.9524 111.639 23.4634 105.506 25.6525C97.148 28.566 89.1903 32.5415 81.0613 36.0681C70.5374 40.6096 60.0718 45.3018 49.7033 50.2419C46.4392 51.7271 42.6691 53.7595 39.1556 52.1808C33.0322 49.68 27.7484 45.3589 21.1135 43.9896C18.2569 43.444 14.7758 43.735 12.5999 46.0149C10.9007 47.846 11.3297 50.4775 11.7074 52.6305C12.6686 57.0404 14.1648 61.3077 15.9401 65.4342C17.7207 64.4387 19.4616 63.5453 21.1356 62.7546C21.1838 62.7333 21.2252 62.7122 21.2768 62.6909C22.5005 62.0681 23.7602 61.5155 25.0384 61.057C28.4119 59.7249 31.3094 58.9664 33.3667 58.9241C36.0551 58.8688 37.2691 60.0087 37.8184 60.9731C38.4663 62.1111 38.4122 63.3885 37.8725 64.7298C37.6487 65.8047 37.0883 66.8359 36.3346 67.6482C32.7148 71.781 28.0281 74.7573 23.5633 77.8811C29.316 81.6354 36.4971 82.325 43.361 81.8833C49.1748 81.4261 55.3089 80.8205 60.7062 78.4339C62.8307 73.2413 63.3604 67.5042 66.1581 62.5646C69.0968 59.5229 73.0269 57.6661 76.7427 55.78C83.3674 52.9224 89.9664 49.3429 97.2097 48.6942C99.7378 48.3147 103.346 49.618 102.722 52.71C101.015 58.4443 97.7753 63.6598 95.0308 68.9867C105.053 64.29 116.8 60.6181 123.208 50.8875C127.659 44.9887 123.156 38.2376 121.447 32.4318L121.45 32.4283ZM62.7125 60.191C62.0166 61.0122 60.9783 61.5772 59.5965 61.6056C56.253 61.6744 55.0434 58.539 55.8689 56.0945C56.1539 55.1872 56.7236 54.3651 57.6012 53.8238C60.2126 51.7544 64.3271 54.1041 64.0118 57.264C64.0361 58.3845 63.5096 59.4183 62.7125 60.191ZM78.3897 52.5386C77.8328 54.5353 75.996 55.4509 74.2215 55.3423C73.5672 55.322 73.0007 55.1783 72.5215 54.9383C72.5146 54.9385 72.508 54.9318 72.5046 54.9285C72.0457 54.6949 71.6637 54.3752 71.3614 53.9932C71.2647 53.8871 71.1645 53.7845 71.0819 53.6613C69.4914 51.6108 70.5122 48.146 72.9728 47.0825C76.3215 45.6294 80.3744 49.1316 78.3931 52.5385L78.3897 52.5386ZM86.8922 49.4162C81.4642 49.5279 81.6495 41.188 87.0673 41.0765C92.4851 40.9651 92.31 49.3048 86.8922 49.4162ZM99.0116 44.5718C93.5835 44.6835 93.7689 36.3436 99.1866 36.2321C104.604 36.1207 104.429 44.4604 99.0116 44.5718Z" fill="var(--fill-0, #E3D5B7)"/>
<path id="Vector_4" d="M127.394 41.2304C128.694 39.7316 129.677 37.9152 129.922 35.9857C130.167 34.0561 129.613 32.0181 128.233 30.7028C126.922 29.4568 124.503 28.5376 122.656 28.6161C122.828 30.6755 124.096 32.9959 124.829 34.9222C125.088 35.5989 127.688 40.8867 127.387 41.2305L127.394 41.2304Z" fill="var(--fill-0, #E3D5B7)"/>
<path id="Vector_5" d="M132.68 67.9454C133.273 68.7604 133.974 69.4888 134.832 70.0147C136.203 70.8542 138.053 71.0998 139.506 70.2798C140.486 69.7296 141.185 68.7597 141.599 67.7248C142.635 65.1341 142.01 62.2467 141.023 59.7213C139.686 56.3084 137.723 53.1987 135.484 50.3242C133.446 47.7023 130.96 44.0833 128.165 42.267C127.203 46.0041 127.877 51.0817 128.296 54.8478C128.747 58.8934 129.744 62.8907 131.719 66.4256C132.008 66.9463 132.325 67.4598 132.68 67.942L132.68 67.9454Z" fill="var(--fill-0, #E3D5B7)"/>
<path id="Vector_6" d="M100.501 51.4276C98.3668 50.408 95.9587 51.0787 93.7254 51.5467C86.6272 53.4045 79.9463 56.665 73.4266 60.0437C70.8689 61.5076 67.7107 62.9838 66.9159 66.0827C64.7806 72.7678 63.0996 79.5753 60.9168 86.2512C60.1622 88.7314 59.1477 91.244 59.2463 93.8586C59.9225 96.5727 63.2321 97.3048 65.7341 97.0373C72.9179 96.1366 79.7621 91.7552 83.4112 85.4138C88.8134 76.4601 93.4872 67.1197 98.2583 57.8516C99.1105 55.7542 100.558 53.7223 100.501 51.4276Z" fill="var(--fill-0, #E3D5B7)"/>
<path id="Vector_7" d="M35.3828 62.3957C36.6195 64.5648 29.7334 70.9391 20.0143 76.6221C10.2882 82.3154 1.4059 85.1721 0.172602 83.0029C-1.06411 80.8337 5.82198 74.4595 15.5411 68.7765C25.2673 63.0832 34.1495 60.2265 35.3828 62.3957Z" fill="var(--fill-0, #E3D5B7)"/>
<path id="Vector_8" d="M20.0143 76.6221C10.2882 82.3154 1.4059 85.1721 0.172602 83.0029C-1.06411 80.8337 5.82198 74.4595 15.5411 68.7765C25.2673 63.0832 34.1495 60.2265 35.3828 62.3957C36.6195 64.5648 29.7334 70.9391 20.0143 76.6221Z" fill="var(--fill-0, #E3D5B7)"/>
</g>
</svg>
