<svg preserveAspectRatio="none" width="100%" height="100%" overflow="visible" style="display: block;" viewBox="0 0 38 38" fill="none" xmlns="http://www.w3.org/2000/svg">
<g id="Group 28426871">
<rect id="Rectangle 694" opacity="0.2" x="0.43383" y="0.433842" width="37.1323" height="37.1323" rx="18.5662" stroke="var(--stroke-0, #818181)" stroke-width="0.86766"/>
<path id="Vector" opacity="0.4" d="M18.0628 20.7401C17.5906 21.1592 17.301 21.7462 17.2557 22.3759L17.1283 24.1469C17.0964 24.5908 17.4699 24.9365 17.7875 24.6247C18.7881 23.6796 20.3195 23.5796 21.4345 24.3867L23.0866 25.5825C23.7421 25.9435 24.2039 25.7534 24.3807 24.9864L26.7267 14.1217C26.7268 14.1214 26.7269 14.1212 26.7271 14.121C26.7273 14.1208 26.7275 14.1205 26.7275 14.1202C26.9352 13.1628 26.3769 12.7885 25.7384 13.0234L11.9482 18.2415C11.0071 18.6026 11.0213 19.1211 11.7883 19.3561C14.0287 20.0448 16.4574 19.7327 18.4508 18.4999L23.5031 15.3754C23.8885 15.1232 24.2389 15.2627 23.9506 15.515L18.0628 20.7401Z" fill="var(--fill-0, #818181)"/>
</g>
</svg>
