<svg preserveAspectRatio="none" width="100%" height="100%" overflow="visible" style="display: block;" viewBox="0 0 13.8182 13.8182" fill="none" xmlns="http://www.w3.org/2000/svg">
<path id="Vector" opacity="0.4" d="M6.91082 0H6.90736C3.09786 0 0 3.09873 0 6.90909C0 8.2198 0.366343 9.44738 1.00383 10.4921C1.1872 10.7926 1.24881 11.1569 1.13684 11.4907C0.853592 12.3351 1.65019 13.1431 2.4985 12.8719L2.59085 12.8424C2.91902 12.7375 3.27434 12.7922 3.57567 12.9592C4.56536 13.5079 5.70027 13.8182 6.91082 13.8182C10.7203 13.8182 13.8182 10.7186 13.8182 6.90909C13.8182 3.09959 10.7203 0 6.91082 0ZM10.931 9.7565C10.7644 10.2272 10.1028 10.6175 9.57514 10.7315C9.21414 10.8084 8.74259 10.8697 7.15523 10.2116C5.12482 9.37045 3.81727 7.30723 3.71536 7.17336C3.61777 7.0395 2.89491 6.08086 2.89491 5.08941C2.89491 4.09795 3.39841 3.61518 3.60136 3.40791C3.76805 3.23777 4.04355 3.16005 4.30782 3.16005C4.39332 3.16005 4.47018 3.16436 4.53927 3.16782C4.74223 3.17645 4.84414 3.18855 4.978 3.50895C5.14468 3.91055 5.55059 4.902 5.59895 5.00391C5.64818 5.10582 5.69741 5.244 5.62832 5.37786C5.56355 5.51605 5.50655 5.57736 5.40464 5.69482C5.30273 5.81227 5.206 5.90209 5.10409 6.02818C5.01082 6.13786 4.90545 6.25532 5.02291 6.45827C5.14036 6.65691 5.54627 7.31932 6.14391 7.85132C6.91514 8.53791 7.54041 8.75727 7.76409 8.85055C7.93077 8.91964 8.12941 8.90323 8.25118 8.77368C8.40577 8.607 8.59664 8.33064 8.79095 8.05859C8.92914 7.86341 9.10359 7.83923 9.28668 7.90832C9.47323 7.97309 10.4604 8.46104 10.6633 8.56209C10.8663 8.664 11.0001 8.71236 11.0494 8.79786C11.0977 8.88336 11.0977 9.28495 10.931 9.7565Z" fill="var(--fill-0, #818181)"/>
</svg>
