<svg width="153" height="245" viewBox="0 0 153 245" fill="none" xmlns="http://www.w3.org/2000/svg" aria-hidden="true">
<g id="959132071" filter="url(#filter0_ii_2264_2)">
<g clip-path="url(#clip0_2264_2)">
<rect width="153" height="245" rx="76.5" fill="#1A1A1A"/>
<g id="Frame 1321320614">
<g id="Group">
<g id="Group_2">
<path id="Vector" d="M98.1303 143.393C90.555 158.434 73.1215 163.149 59.1914 153.924" stroke="url(#paint0_linear_2264_2)" stroke-width="1.07198"/>
</g>
<g id="Group_3">
<path id="Vector_2" d="M53.3204 151.119C41.7245 138.035 41.7245 116.821 53.3204 103.736" stroke="url(#paint1_linear_2264_2)" stroke-width="1.11664"/>
</g>
<g id="Group_4">
<path id="Vector_3" d="M57.9559 98.6674C73.071 88.6575 91.9876 93.7732 100.207 110.094" stroke="url(#paint2_linear_2264_2)" stroke-width="1.16317"/>
</g>
<g id="Group_5">
<path id="Vector_4" d="M104.725 117.588C108.969 136.533 98.1842 156.467 80.6356 162.113" stroke="url(#paint3_linear_2264_2)" stroke-width="1.21163"/>
</g>
<g id="Group_6">
<path id="Vector_5" d="M74.1707 164.66C55.6353 164.66 40.6094 147.705 40.6094 126.791" stroke="url(#paint4_linear_2264_2)" stroke-width="1.26212"/>
</g>
<g id="Group_7">
<path id="Vector_6" d="M40.2585 117.135C44.8641 96.5784 64.0338 84.8801 83.0753 91.0061" stroke="url(#paint5_linear_2264_2)" stroke-width="1.31471"/>
</g>
<g id="Group_8">
<path id="Vector_7" d="M90.3124 92.0866C108.109 103.872 114.69 129.003 105.012 148.218" stroke="url(#paint6_linear_2264_2)" stroke-width="1.36948"/>
</g>
<g id="Group_9">
<path id="Vector_8" d="M100.433 156.681C85.6185 173.397 61.6002 173.397 46.7861 156.681" stroke="url(#paint7_linear_2264_2)" stroke-width="1.42655"/>
</g>
<g id="Group_10">
<path id="Vector_9" d="M39.541 149.988C29.0401 129.138 36.1813 101.87 55.4914 89.0817" stroke="url(#paint8_linear_2264_2)" stroke-width="1.48599"/>
</g>
<g id="Group_11">
<path id="Vector_10" d="M62.4693 84.5477C84.8883 77.3352 107.458 91.1085 112.881 115.311" stroke="url(#paint9_linear_2264_2)" stroke-width="1.54791"/>
</g>
<g id="Group_12">
<path id="Vector_11" d="M115.773 126.617C115.773 153.336 96.5773 174.996 72.8977 174.996" stroke="url(#paint10_linear_2264_2)" stroke-width="1.6124"/>
</g>
<g id="Group_13">
<path id="Vector_12" d="M63.8745 175.506C39.5483 167.68 24.5979 140.047 30.4817 113.785" stroke="url(#paint11_linear_2264_2)" stroke-width="1.67958"/>
</g>
<g id="Group_14">
<path id="Vector_13" d="M33.606 101.36C45.9695 76.8122 74.4227 69.1176 97.158 84.1737" stroke="url(#paint12_linear_2264_2)" stroke-width="1.74957"/>
</g>
<g id="Group_15">
<path id="Vector_14" d="M106.74 88.7614C125.666 110.116 125.666 144.739 106.74 166.094" stroke="url(#paint13_linear_2264_2)" stroke-width="1.82246"/>
</g>
<g id="Group_16">
<path id="Vector_15" d="M99.156 174.357C74.4867 190.694 43.613 182.344 30.1977 155.708" stroke="url(#paint14_linear_2264_2)" stroke-width="1.8984"/>
</g>
<g id="Group_17">
<path id="Vector_16" d="M22.8245 143.474C15.8971 112.554 33.4994 80.0186 62.1404 70.8044" stroke="url(#paint15_linear_2264_2)" stroke-width="1.9775"/>
</g>
<g id="Group_18">
<path id="Vector_17" d="M72.6973 66.6504C102.949 66.6504 127.473 94.3221 127.473 128.457" stroke="url(#paint16_linear_2264_2)" stroke-width="2.0599"/>
</g>
<g id="Group_19">
<path id="Vector_18" d="M128.048 144.217C120.531 177.767 89.2442 196.86 58.1667 186.862" stroke="url(#paint17_linear_2264_2)" stroke-width="2.14573"/>
</g>
<g id="Group_20">
<path id="Vector_19" d="M46.3642 185.091C17.3191 165.857 6.57773 124.841 22.3726 93.4795" stroke="url(#paint18_linear_2264_2)" stroke-width="2.23514"/>
</g>
<g id="Group_21">
<path id="Vector_20" d="M29.8313 79.6691C54.0093 52.3875 93.2095 52.3875 117.387 79.6691" stroke="url(#paint19_linear_2264_2)" stroke-width="2.32826"/>
</g>
<g id="Group_22">
<path id="Vector_21" d="M129.206 90.5865C146.345 124.615 134.69 169.121 103.174 189.992" stroke="url(#paint20_linear_2264_2)" stroke-width="2.42527"/>
</g>
<g id="Group_23">
<path id="Vector_22" d="M91.7949 197.401C55.205 209.172 18.3686 186.693 9.51857 147.191" stroke="url(#paint21_linear_2264_2)" stroke-width="2.52633"/>
</g>
<g id="Group_24">
<path id="Vector_23" d="M4.80469 128.741C4.80469 85.1328 36.1346 49.7813 74.7821 49.7813" stroke="url(#paint22_linear_2264_2)" stroke-width="2.63159"/>
</g>
<g id="Group_25">
<path id="Vector_24" d="M89.5144 48.9447C129.217 61.7177 153.618 106.818 144.015 149.68" stroke="url(#paint23_linear_2264_2)" stroke-width="2.74124"/>
</g>
<g id="Group_26">
<path id="Vector_25" d="M138.907 169.966C118.729 210.031 72.2907 222.589 35.1846 198.016" stroke="url(#paint24_linear_2264_2)" stroke-width="2.85546"/>
</g>
<g id="Group_27">
<path id="Vector_26" d="M19.5491 190.535C-11.3391 155.682 -11.3391 99.1737 19.5491 64.3205" stroke="url(#paint25_linear_2264_2)" stroke-width="2.97444"/>
</g>
<g id="Group_28">
<path id="Vector_27" d="M31.9222 50.8236C72.1849 24.16 122.574 37.7868 144.469 81.2598" stroke="url(#paint26_linear_2264_2)" stroke-width="3.09837"/>
</g>
<g id="Group_29">
<path id="Vector_28" d="M156.497 101.216C167.803 151.68 139.075 204.781 92.3296 219.82" stroke="url(#paint27_linear_2264_2)" stroke-width="3.22747"/>
</g>
<g id="Group_30">
<path id="Vector_29" d="M75.1057 226.617C25.7321 226.617 -14.293 181.454 -14.293 125.743" stroke="url(#paint28_linear_2264_2)" stroke-width="3.36195"/>
</g>
<g id="Group_31">
<path id="Vector_30" d="M-15.2406 100.022C-2.97253 45.2645 48.0905 14.1032 98.8119 30.421" stroke="url(#paint29_linear_2264_2)" stroke-width="3.50203"/>
</g>
<g id="Group_32">
<path id="Vector_31" d="M118.085 33.3006C165.489 64.6936 183.02 131.635 157.242 182.82" stroke="url(#paint30_linear_2264_2)" stroke-width="3.64795"/>
</g>
<g id="Group_33">
<path id="Vector_32" d="M145.059 205.359C105.599 249.885 41.6202 249.885 2.15947 205.359" stroke="url(#paint31_linear_2264_2)" stroke-width="3.79994"/>
</g>
<g id="Group_34">
<path id="Vector_33" d="M-17.1339 187.528C-45.1057 131.99 -26.0834 59.3528 25.3536 25.2892" stroke="url(#paint32_linear_2264_2)" stroke-width="3.95828"/>
</g>
<g id="Group_35">
<path id="Vector_34" d="M43.9371 13.2166C103.655 -5.99569 163.776 30.6927 178.22 95.1625" stroke="url(#paint33_linear_2264_2)" stroke-width="4.1232"/>
</g>
<g id="Group_36">
<path id="Vector_35" d="M185.922 125.274C185.922 196.447 134.788 254.145 71.7121 254.145" stroke="url(#paint34_linear_2264_2)" stroke-width="4.29501"/>
</g>
<g id="Group_37">
<path id="Vector_36" d="M47.6598 255.508C-17.1386 234.661 -56.9626 161.053 -41.2897 91.0985" stroke="url(#paint35_linear_2264_2)" stroke-width="4.47396"/>
</g>
<g id="Group_38">
<path id="Vector_37" d="M-32.9511 57.988C-0.0179115 -7.40154 75.7737 -27.8982 136.334 12.2074" stroke="url(#paint36_linear_2264_2)" stroke-width="4.66038"/>
</g>
<g id="Group_39">
<path id="Vector_38" d="M161.849 24.4308C212.262 81.3145 212.262 173.541 161.849 230.425" stroke="url(#paint37_linear_2264_2)" stroke-width="4.85456"/>
</g>
<g id="Group_40">
<path id="Vector_39" d="M141.674 252.439C75.9618 295.957 -6.27738 273.716 -42.0122 202.764" stroke="url(#paint38_linear_2264_2)" stroke-width="5.05684"/>
</g>
<g id="Group_41">
<path id="Vector_40" d="M-61.6663 170.193C-80.1192 87.8304 -33.2312 1.16541 43.0609 -23.3789" stroke="url(#paint39_linear_2264_2)" stroke-width="5.26753"/>
</g>
<g id="Group_42">
<path id="Vector_41" d="M71.1829 -34.4707C151.765 -34.4707 217.09 39.2394 217.09 130.165" stroke="url(#paint40_linear_2264_2)" stroke-width="5.48701"/>
</g>
</g>
</g>
<defs>
<filter id="filter0_ii_2264_2" x="-20" y="-20" width="193" height="285" filterUnits="userSpaceOnUse" color-interpolation-filters="sRGB">
<feFlood flood-opacity="0" result="BackgroundImageFix"/>
<feBlend mode="normal" in="SourceGraphic" in2="BackgroundImageFix" result="shape"/>
<feColorMatrix in="SourceAlpha" type="matrix" values="0 0 0 0 0 0 0 0 0 0 0 0 0 0 0 0 0 0 127 0" result="hardAlpha"/>
<feOffset dx="-20" dy="-20"/>
<feGaussianBlur stdDeviation="12.5"/>
<feComposite in2="hardAlpha" operator="arithmetic" k2="-1" k3="1"/>
<feColorMatrix type="matrix" values="0 0 0 0 0 0 0 0 0 0 0 0 0 0 0 0 0 0 0.25 0"/>
<feBlend mode="normal" in2="shape" result="effect1_innerShadow_2264_2"/>
<feColorMatrix in="SourceAlpha" type="matrix" values="0 0 0 0 0 0 0 0 0 0 0 0 0 0 0 0 0 0 127 0" result="hardAlpha"/>
<feOffset dx="20" dy="20"/>
<feGaussianBlur stdDeviation="12.5"/>
<feComposite in2="hardAlpha" operator="arithmetic" k2="-1" k3="1"/>
<feColorMatrix type="matrix" values="0 0 0 0 0 0 0 0 0 0 0 0 0 0 0 0 0 0 0.25 0"/>
<feBlend mode="normal" in2="effect1_innerShadow_2264_2" result="effect2_innerShadow_2264_2"/>
</filter>
<linearGradient id="paint0_linear_2264_2" x1="59.801" y1="152.713" x2="98.154" y2="143.492" gradientUnits="userSpaceOnUse">
<stop stop-color="white" stop-opacity="0"/>
<stop offset="1" stop-color="#E3D5B7"/>
</linearGradient>
<linearGradient id="paint1_linear_2264_2" x1="54.2535" y1="104.789" x2="53.0656" y2="151.113" gradientUnits="userSpaceOnUse">
<stop stop-color="white" stop-opacity="0"/>
<stop offset="1" stop-color="#E3D5B7"/>
</linearGradient>
<linearGradient id="paint2_linear_2264_2" x1="98.9909" y1="110.899" x2="57.7996" y2="99.2185" gradientUnits="userSpaceOnUse">
<stop stop-color="white" stop-opacity="0"/>
<stop offset="1" stop-color="#E3D5B7"/>
</linearGradient>
<linearGradient id="paint3_linear_2264_2" x1="80.294" y1="160.588" x2="107.054" y2="119.09" gradientUnits="userSpaceOnUse">
<stop stop-color="white" stop-opacity="0"/>
<stop offset="1" stop-color="#E3D5B7"/>
</linearGradient>
<linearGradient id="paint4_linear_2264_2" x1="42.101" y1="126.791" x2="78.2223" y2="160.292" gradientUnits="userSpaceOnUse">
<stop stop-color="white" stop-opacity="0"/>
<stop offset="1" stop-color="#E3D5B7"/>
</linearGradient>
<linearGradient id="paint5_linear_2264_2" x1="82.7047" y1="92.6603" x2="39.187" y2="115.053" gradientUnits="userSpaceOnUse">
<stop stop-color="white" stop-opacity="0"/>
<stop offset="1" stop-color="#E3D5B7"/>
</linearGradient>
<linearGradient id="paint6_linear_2264_2" x1="103.58" y1="147.269" x2="90.1704" y2="92.1211" gradientUnits="userSpaceOnUse">
<stop stop-color="white" stop-opacity="0"/>
<stop offset="1" stop-color="#7AABC4"/>
</linearGradient>
<linearGradient id="paint7_linear_2264_2" x1="47.9783" y1="155.336" x2="100.438" y2="156.392" gradientUnits="userSpaceOnUse">
<stop stop-color="white" stop-opacity="0"/>
<stop offset="1" stop-color="#E3D5B7"/>
</linearGradient>
<linearGradient id="paint8_linear_2264_2" x1="56.3364" y1="90.7596" x2="38.7518" y2="149.753" gradientUnits="userSpaceOnUse">
<stop stop-color="white" stop-opacity="0"/>
<stop offset="1" stop-color="#E3D5B7"/>
</linearGradient>
<linearGradient id="paint9_linear_2264_2" x1="111.077" y1="115.892" x2="60.8682" y2="87.3658" gradientUnits="userSpaceOnUse">
<stop stop-color="white" stop-opacity="0"/>
<stop offset="1" stop-color="#E3D5B7"/>
</linearGradient>
<linearGradient id="paint10_linear_2264_2" x1="72.8977" y1="172.846" x2="120.666" y2="132.394" gradientUnits="userSpaceOnUse">
<stop stop-color="white" stop-opacity="0"/>
<stop offset="1" stop-color="#E3D5B7"/>
</linearGradient>
<linearGradient id="paint11_linear_2264_2" x1="32.4393" y1="114.415" x2="66.7192" y2="173.866" gradientUnits="userSpaceOnUse">
<stop stop-color="white" stop-opacity="0"/>
<stop offset="1" stop-color="#7AABC4"/>
</linearGradient>
<linearGradient id="paint12_linear_2264_2" x1="96.163" y1="86.1492" x2="33.5672" y2="101.199" gradientUnits="userSpaceOnUse">
<stop stop-color="white" stop-opacity="0"/>
<stop offset="1" stop-color="#E3D5B7"/>
</linearGradient>
<linearGradient id="paint13_linear_2264_2" x1="105.217" y1="164.376" x2="107.156" y2="88.7721" gradientUnits="userSpaceOnUse">
<stop stop-color="white" stop-opacity="0"/>
<stop offset="1" stop-color="#E3D5B7"/>
</linearGradient>
<linearGradient id="paint14_linear_2264_2" x1="32.183" y1="154.393" x2="99.4111" y2="173.457" gradientUnits="userSpaceOnUse">
<stop stop-color="white" stop-opacity="0"/>
<stop offset="1" stop-color="#E3D5B7"/>
</linearGradient>
<linearGradient id="paint15_linear_2264_2" x1="62.6979" y1="73.2926" x2="19.023" y2="141.022" gradientUnits="userSpaceOnUse">
<stop stop-color="white" stop-opacity="0"/>
<stop offset="1" stop-color="#E3D5B7"/>
</linearGradient>
<linearGradient id="paint16_linear_2264_2" x1="125.038" y1="128.457" x2="66.0848" y2="73.7801" gradientUnits="userSpaceOnUse">
<stop stop-color="white" stop-opacity="0"/>
<stop offset="1" stop-color="#E3D5B7"/>
</linearGradient>
<linearGradient id="paint17_linear_2264_2" x1="58.7717" y1="184.162" x2="129.797" y2="147.615" gradientUnits="userSpaceOnUse">
<stop stop-color="white" stop-opacity="0"/>
<stop offset="1" stop-color="#7AABC4"/>
</linearGradient>
<linearGradient id="paint18_linear_2264_2" x1="24.71" y1="95.0274" x2="46.5958" y2="185.035" gradientUnits="userSpaceOnUse">
<stop stop-color="white" stop-opacity="0"/>
<stop offset="1" stop-color="#E3D5B7"/>
</linearGradient>
<linearGradient id="paint19_linear_2264_2" x1="115.442" y1="81.8645" x2="29.8218" y2="80.14" gradientUnits="userSpaceOnUse">
<stop stop-color="white" stop-opacity="0"/>
<stop offset="1" stop-color="#E3D5B7"/>
</linearGradient>
<linearGradient id="paint20_linear_2264_2" x1="101.795" y1="187.253" x2="130.494" y2="90.9705" gradientUnits="userSpaceOnUse">
<stop stop-color="white" stop-opacity="0"/>
<stop offset="1" stop-color="#7AABC4"/>
</linearGradient>
<linearGradient id="paint21_linear_2264_2" x1="12.4631" y1="146.244" x2="94.4081" y2="192.801" gradientUnits="userSpaceOnUse">
<stop stop-color="white" stop-opacity="0"/>
<stop offset="1" stop-color="#AD3831"/>
</linearGradient>
<linearGradient id="paint22_linear_2264_2" x1="74.7821" y1="53.2906" x2="-3.17992" y2="119.313" gradientUnits="userSpaceOnUse">
<stop stop-color="white" stop-opacity="0"/>
<stop offset="1" stop-color="#E3D5B7"/>
</linearGradient>
<linearGradient id="paint23_linear_2264_2" x1="140.82" y1="148.652" x2="84.8715" y2="51.6219" gradientUnits="userSpaceOnUse">
<stop stop-color="white" stop-opacity="0"/>
<stop offset="1" stop-color="#E3D5B7"/>
</linearGradient>
<linearGradient id="paint24_linear_2264_2" x1="36.8085" y1="194.792" x2="138.971" y2="170.229" gradientUnits="userSpaceOnUse">
<stop stop-color="white" stop-opacity="0"/>
<stop offset="1" stop-color="#E3D5B7"/>
</linearGradient>
<linearGradient id="paint25_linear_2264_2" x1="22.0348" y1="67.1253" x2="18.8705" y2="190.518" gradientUnits="userSpaceOnUse">
<stop stop-color="white" stop-opacity="0"/>
<stop offset="1" stop-color="#E3D5B7"/>
</linearGradient>
<linearGradient id="paint26_linear_2264_2" x1="141.229" y1="83.4055" x2="31.506" y2="52.2916" gradientUnits="userSpaceOnUse">
<stop stop-color="white" stop-opacity="0"/>
<stop offset="1" stop-color="#7AABC4"/>
</linearGradient>
<linearGradient id="paint27_linear_2264_2" x1="91.4198" y1="215.759" x2="162.701" y2="105.217" gradientUnits="userSpaceOnUse">
<stop stop-color="white" stop-opacity="0"/>
<stop offset="1" stop-color="#AD3831"/>
</linearGradient>
<linearGradient id="paint28_linear_2264_2" x1="-10.3197" y1="125.743" x2="85.8979" y2="214.981" gradientUnits="userSpaceOnUse">
<stop stop-color="white" stop-opacity="0"/>
<stop offset="1" stop-color="#7AABC4"/>
</linearGradient>
<linearGradient id="paint29_linear_2264_2" x1="97.8247" y1="34.8276" x2="-18.0947" y2="94.4749" gradientUnits="userSpaceOnUse">
<stop stop-color="white" stop-opacity="0"/>
<stop offset="1" stop-color="#E3D5B7"/>
</linearGradient>
<linearGradient id="paint30_linear_2264_2" x1="153.427" y1="180.293" x2="117.707" y2="33.3925" gradientUnits="userSpaceOnUse">
<stop stop-color="white" stop-opacity="0"/>
<stop offset="1" stop-color="#7AABC4"/>
</linearGradient>
<linearGradient id="paint31_linear_2264_2" x1="5.33503" y1="201.776" x2="145.075" y2="204.59" gradientUnits="userSpaceOnUse">
<stop stop-color="white" stop-opacity="0"/>
<stop offset="1" stop-color="#E3D5B7"/>
</linearGradient>
<linearGradient id="paint32_linear_2264_2" x1="27.6045" y1="29.7586" x2="-19.2366" y2="186.901" gradientUnits="userSpaceOnUse">
<stop stop-color="white" stop-opacity="0"/>
<stop offset="1" stop-color="#E3D5B7"/>
</linearGradient>
<linearGradient id="paint33_linear_2264_2" x1="173.414" y1="96.7086" x2="39.6722" y2="20.7233" gradientUnits="userSpaceOnUse">
<stop stop-color="white" stop-opacity="0"/>
<stop offset="1" stop-color="#AD3831"/>
</linearGradient>
<linearGradient id="paint34_linear_2264_2" x1="71.7121" y1="248.417" x2="198.953" y2="140.663" gradientUnits="userSpaceOnUse">
<stop stop-color="white" stop-opacity="0"/>
<stop offset="1" stop-color="#E3D5B7"/>
</linearGradient>
<linearGradient id="paint35_linear_2264_2" x1="-36.0752" y1="92.7761" x2="55.2374" y2="251.139" gradientUnits="userSpaceOnUse">
<stop stop-color="white" stop-opacity="0"/>
<stop offset="1" stop-color="#AD3831"/>
</linearGradient>
<linearGradient id="paint36_linear_2264_2" x1="133.684" y1="17.4696" x2="-33.0543" y2="57.5589" gradientUnits="userSpaceOnUse">
<stop stop-color="white" stop-opacity="0"/>
<stop offset="1" stop-color="#E3D5B7"/>
</linearGradient>
<linearGradient id="paint37_linear_2264_2" x1="157.792" y1="225.847" x2="162.957" y2="24.4592" gradientUnits="userSpaceOnUse">
<stop stop-color="white" stop-opacity="0"/>
<stop offset="1" stop-color="#E3D5B7"/>
</linearGradient>
<linearGradient id="paint38_linear_2264_2" x1="-36.7241" y1="199.262" x2="142.354" y2="250.043" gradientUnits="userSpaceOnUse">
<stop stop-color="white" stop-opacity="0"/>
<stop offset="1" stop-color="#E3D5B7"/>
</linearGradient>
<linearGradient id="paint39_linear_2264_2" x1="44.5459" y1="-16.7509" x2="-71.7926" y2="163.663" gradientUnits="userSpaceOnUse">
<stop stop-color="white" stop-opacity="0"/>
<stop offset="1" stop-color="#E3D5B7"/>
</linearGradient>
<linearGradient id="paint40_linear_2264_2" x1="210.605" y1="130.165" x2="53.5689" y2="-15.4791" gradientUnits="userSpaceOnUse">
<stop stop-color="white" stop-opacity="0"/>
<stop offset="1" stop-color="#E3D5B7"/>
</linearGradient>
<clipPath id="clip0_2264_2">
<rect width="153" height="245" rx="76.5" fill="white"/>
</clipPath>
</defs>
</svg>
