<svg preserveAspectRatio="none" width="100%" height="100%" overflow="visible" style="display: block;" viewBox="0 0 41.2509 34.2774" fill="none" xmlns="http://www.w3.org/2000/svg">
<path id="Vector 949" d="M0.319975 26.7505C-0.0484731 27.0463 -0.107377 27.5848 0.188408 27.9532L5.00851 33.9574C5.3043 34.3259 5.84277 34.3848 6.21122 34.089C6.57966 33.7932 6.63857 33.2547 6.34278 32.8863L2.05824 27.5492L7.39531 23.2647C7.76376 22.9689 7.82267 22.4304 7.52688 22.062C7.2311 21.6935 6.69263 21.6346 6.32418 21.9304L0.319975 26.7505ZM0.855542 27.4176L0.762511 28.2681C9.05863 29.1756 28.4432 24.8083 41.251 0.805495L40.4962 0.402748L39.7414 0C27.2592 23.3927 8.54203 27.3979 0.948574 26.5672L0.855542 27.4176Z" fill="var(--stroke-0, #656565)"/>
</svg>
