<svg preserveAspectRatio="none" width="100%" height="100%" overflow="visible" style="display: block;" viewBox="0 0 154.827 105.77" fill="none" xmlns="http://www.w3.org/2000/svg">
<g id="Group">
<path id="Vector" d="M131.574 7.68851C131.079 6.47027 130.505 5.28183 129.842 4.14182C129.026 2.73358 128.031 1.35515 126.604 0.572797C122.905 -1.46506 119.537 2.32378 119.224 5.82576C119.049 7.7891 119.537 9.75245 120.204 11.6078C121.683 15.7356 124.023 19.4947 126.4 23.1829C127.353 24.662 128.326 26.1484 129.529 27.4337C130.792 28.7824 132.211 29.5982 133.854 30.3694C134.253 28.2533 134.201 25.9137 134.227 23.7604C134.249 21.4692 134.156 19.1705 133.88 16.8943C133.5 13.7462 132.766 10.6242 131.574 7.69224V7.68851Z" fill="var(--fill-0, #7AABC4)"/>
<path id="Vector_2" d="M85.624 24.2477C83.8731 24.3893 82.1519 24.8177 80.5723 25.6001C77.9197 26.9152 74.3805 28.5507 73.5869 31.7062C73.3075 32.8201 73.4342 33.9899 73.5981 35.1262C73.8961 37.1901 74.3171 39.2392 74.8573 41.2509C83.9923 37.5478 93.0751 33.7105 102.098 29.7428C98.641 27.582 95.0161 25.5665 91.0409 24.665C89.2862 24.2663 87.4384 24.1024 85.624 24.2477Z" fill="var(--fill-0, #7AABC4)"/>
<path id="Vector_3" d="M131.492 35.7088C129.379 28.5223 120.569 25.5941 113.918 27.8704C104.854 30.8955 96.2521 35.1016 87.4525 38.8085C76.0599 43.5808 64.7343 48.5209 53.5205 53.7366C49.9887 55.3013 45.9168 57.4584 42.0422 55.6366C35.2953 52.7381 29.4239 47.8503 22.1443 46.1887C19.0111 45.5218 15.2148 45.764 12.8901 48.2303C11.0758 50.2122 11.6048 53.1256 12.0668 55.5099C13.218 60.3978 14.9503 65.1404 16.9844 69.7339C18.9068 68.6759 20.7882 67.7296 22.5988 66.8951C22.6509 66.8727 22.6956 66.8504 22.7515 66.828C24.0741 66.1686 25.4376 65.5874 26.8235 65.1106C30.4782 63.7172 33.6263 62.946 35.8728 62.946C38.8085 62.946 40.1608 64.2314 40.783 65.308C41.5169 66.5784 41.4871 67.9867 40.9283 69.4545C40.7085 70.6355 40.1199 71.7606 39.3152 72.6398C35.4555 77.1179 30.4037 80.2957 25.5978 83.6412C31.9684 87.9144 39.8293 88.8383 47.3175 88.5068C53.6584 88.1342 60.3457 87.6052 66.1873 85.0942C68.389 79.4128 68.8361 73.0943 71.7792 67.7073C74.9198 64.4176 79.1707 62.458 83.1868 60.4611C90.3584 57.4584 97.4853 53.6584 105.383 53.107C108.136 52.7456 112.108 54.2656 111.497 57.6633C109.765 63.9519 106.345 69.6333 103.468 75.4489C114.31 70.4939 127.058 66.7088 133.835 56.1172C138.563 49.7093 133.489 42.1577 131.488 35.7126L131.492 35.7088ZM67.9606 65.01C67.2192 65.9004 66.0978 66.5002 64.589 66.5002C60.938 66.5002 59.5447 63.0131 60.3904 60.3345C60.681 59.3397 61.2845 58.4456 62.2308 57.8682C65.0361 55.644 69.5849 58.3301 69.313 61.8098C69.3651 63.0466 68.8137 64.1755 67.9606 65.01ZM84.9117 56.9219C84.3491 59.1125 82.3634 60.0811 80.4224 59.9209C79.7071 59.8837 79.085 59.7123 78.5559 59.4366C78.5485 59.4366 78.541 59.4292 78.5373 59.4254C78.0306 59.1572 77.6059 58.7958 77.2669 58.3674C77.1589 58.2482 77.0471 58.1327 76.954 57.9948C75.1695 55.6962 76.2051 51.8962 78.8689 50.7785C82.4938 49.2511 87.0017 53.2076 84.9154 56.9219H84.9117ZM94.1286 53.6695C88.2013 53.6695 88.2125 44.4712 94.1286 44.4712C100.045 44.4712 100.045 53.6695 94.1286 53.6695ZM107.257 48.5991C101.33 48.5991 101.341 39.4008 107.257 39.4008C113.173 39.4008 113.173 48.5991 107.257 48.5991Z" fill="var(--fill-0, #7AABC4)"/>
<path id="Vector_4" d="M138.181 45.5535C139.567 43.9292 140.599 41.9472 140.823 39.8237C141.046 37.7001 140.394 35.4388 138.855 33.956C137.395 32.5515 134.731 31.4823 132.716 31.527C132.951 33.8033 134.389 36.3925 135.234 38.5347C135.532 39.2872 138.494 45.181 138.174 45.5535H138.181Z" fill="var(--fill-0, #7AABC4)"/>
<path id="Vector_5" d="M144.569 75.154C145.236 76.0667 146.019 76.8863 146.969 77.4861C148.485 78.4436 150.512 78.7565 152.08 77.8847C153.138 77.2998 153.879 76.2455 154.308 75.113C155.381 72.2778 154.632 69.0776 153.496 66.2686C151.957 62.4723 149.74 58.9964 147.229 55.7738C144.942 52.8344 142.144 48.7848 139.048 46.7171C138.083 50.8189 138.936 56.437 139.48 60.6021C140.065 65.0765 141.246 69.5098 143.485 73.4551C143.813 74.0363 144.171 74.61 144.569 75.1502V75.154Z" fill="var(--fill-0, #7AABC4)"/>
<path id="Vector_6" d="M109.039 56.1945C106.685 55.021 104.069 55.7065 101.64 56.1722C93.9285 58.061 86.7048 61.5071 79.6598 65.0873C76.8992 66.6446 73.4829 68.2019 72.6857 71.6032C70.5063 78.9313 68.8261 86.4047 66.5945 93.7216C65.827 96.4412 64.7764 99.1906 64.9441 102.078C65.7451 105.088 69.3774 105.971 72.1045 105.733C79.9318 104.902 87.3083 100.223 91.1493 93.3081C96.8456 83.551 101.737 73.3505 106.737 63.232C107.62 60.9371 109.155 58.7279 109.039 56.1945Z" fill="var(--fill-0, #7AABC4)"/>
<path id="Vector_7" d="M38.1634 66.8197C39.5642 69.2413 32.1877 76.1186 21.7004 82.1688C11.2056 88.2302 1.56773 91.1808 0.170663 88.7592C-1.23013 86.3377 6.14638 79.4604 16.6337 73.4102C27.1285 67.3488 36.7664 64.3981 38.1634 66.8197Z" fill="var(--fill-0, #7AABC4)"/>
<path id="Vector_8" d="M21.7004 82.1688C11.2056 88.2302 1.56773 91.1808 0.170663 88.7592C-1.23013 86.3377 6.14638 79.4604 16.6337 73.4102C27.1285 67.3488 36.7664 64.3981 38.1634 66.8197C39.5642 69.2413 32.1877 76.1186 21.7004 82.1688Z" fill="var(--fill-0, #7AABC4)"/>
</g>
</svg>
