<svg preserveAspectRatio="none" width="100%" height="100%" overflow="visible" style="display: block;" viewBox="0 0 101.63 100.814" fill="none" xmlns="http://www.w3.org/2000/svg">
<g id="Group">
<path id="Vector" d="M98.4492 6.83976C92.998 13.0702 87.2752 19.065 81.7733 25.2618C79.524 27.4284 77.7492 30.2761 74.9783 31.7729C61.9824 31.7654 49.0372 30.0553 36.0666 29.2807C25.0845 28.3078 14.0807 27.6791 3.09138 26.7436C9.23439 19.4242 15.7722 12.4565 22.1724 5.3841C24.505 2.88443 27.1744 -0.109196 30.8363 0.0030648C36.5592 0.223844 42.3038 0.377291 47.9831 1.10324L64.1955 2.11357L64.3874 2.12856C74.0837 2.65244 83.7763 3.35221 93.4725 3.95841C95.1785 4.50475 98.6231 4.23156 98.4529 6.83976H98.4492Z" fill="var(--fill-0, #E3D5B7)"/>
<path id="Vector_2" d="M100.592 8.56471C92.8842 15.7681 86.2341 24.0867 78.9683 31.7503C78.1316 32.8879 76.6176 33.8571 76.6683 35.44C76.8603 56.0286 76.6791 76.6172 76.8602 97.2059C83.7639 90.8369 90.1496 83.903 96.749 77.201C98.7049 75.0344 101.342 72.8341 101.331 69.5897C101.483 54.3073 101.309 39.0249 101.411 23.7536C101.552 18.6757 102.117 13.4855 100.592 8.56471Z" fill="var(--fill-0, #E3D5B7)"/>
<path id="Vector_3" d="M11.6804 96.7464C30.5586 97.8316 49.3897 99.5829 68.2569 100.75C71.1836 101.229 74.534 98.9692 74.4506 95.7061C74.6136 77.2654 74.4507 58.8135 74.5014 40.3728C74.4217 38.6926 74.6317 36.4437 72.9982 35.482C69.1624 33.0646 64.432 33.9926 60.1725 33.4687C42.3339 31.8746 24.4735 30.6323 6.60229 29.3712C5.08827 29.506 3.1722 28.8174 1.96243 30.0598C0.267311 31.594 -0.015211 34.0413 0.0137654 36.2416C0.0246316 53.2753 0.0644742 70.3202 0.0137654 87.3539C-0.0876521 89.7713 0.347008 92.3683 2.13268 94.1083C4.56308 96.8176 8.43867 96.3385 11.6768 96.7464H11.6804ZM16.4217 55.9134C20.8225 54.9031 25.3428 54.5887 29.8233 54.121C32.3261 50.2218 34.0611 45.8661 36.7052 42.0717C37.531 40.747 39.5594 40.1108 40.2983 41.9145C42.7794 45.9297 44.355 50.4314 46.5029 54.6337C51.7911 56.2689 57.4596 56.3962 62.5268 58.836C60.5383 64.1309 54.6778 66.1441 51.5774 70.6046C51.4759 75.0764 52.7183 79.4433 52.7292 83.9076C52.7908 85.221 52.2366 86.149 51.0558 86.7103C46.2819 84.9179 42.2868 81.5276 37.7049 79.3311C33.1121 80.5734 29.1279 83.4809 24.6582 85.105C23.3978 85.8646 21.7026 84.3453 22.025 82.9383C22.217 78.4442 23.6006 74.1184 24.0642 69.6691C21.4419 65.5941 17.0628 63.0906 14.4766 58.9931C13.5784 57.6497 15.1214 56.0519 16.4253 55.9172L16.4217 55.9134Z" fill="var(--fill-0, #E3D5B7)"/>
</g>
</svg>
