<svg preserveAspectRatio="none" width="100%" height="100%" overflow="visible" style="display: block;" viewBox="0 0 122.502 115.416" fill="none" xmlns="http://www.w3.org/2000/svg">
<g id="Group">
<path id="Vector" d="M119.088 75.9538C120.075 75.7316 120.954 75.1742 121.576 74.3765C122.199 73.5788 122.525 72.5902 122.5 71.5788V67.9038C122.5 64.4229 121.118 61.0845 118.656 58.6231C116.195 56.1617 112.856 54.7788 109.375 54.7788H92.4878V62.9382C92.5266 63.2255 92.5084 63.5176 92.4343 63.7978C92.3602 64.0781 92.2316 64.341 92.0559 64.5715C91.8802 64.8021 91.6608 64.9957 91.4103 65.1415C91.1597 65.2873 90.8829 65.3822 90.5956 65.421C90.0155 65.4994 89.428 65.344 88.9624 64.9891C88.4967 64.6343 88.1911 64.109 88.1128 63.5288C87.9597 63.1132 88.1128 54.7788 88.1128 54.7788H13.9128C12.1241 54.6713 10.3324 54.9312 8.64794 55.5425C6.96351 56.1538 5.42209 57.1035 4.11865 58.3332C2.81522 59.5628 1.77739 61.0463 1.06911 62.6923C0.360825 64.3383 -0.00290934 66.1119 0.0003192 67.9038V71.5351C-0.012382 72.587 0.354334 73.6082 1.03328 74.4117C1.71224 75.2152 2.65796 75.7471 3.69719 75.9101C5.88138 76.2645 7.86819 77.3846 9.30207 79.0699C10.736 80.7552 11.5233 82.8958 11.5233 85.1085C11.5233 87.3213 10.736 89.4619 9.30207 91.1472C7.86819 92.8325 5.88138 93.9526 3.69719 94.307C2.65796 94.4699 1.71224 95.0019 1.03328 95.8054C0.354334 96.6089 -0.012382 97.6301 0.0003192 98.682V102.291C0.0003192 105.772 1.38313 109.111 3.84454 111.572C6.30596 114.034 9.64435 115.416 13.1253 115.416H88.1128C88.1128 115.416 87.9816 107.038 88.1128 106.666C88.2567 106.229 88.535 105.848 88.9082 105.577C89.2813 105.307 89.7303 105.162 90.191 105.162C90.6516 105.162 91.1006 105.307 91.4737 105.577C91.8469 105.848 92.1252 106.229 92.2691 106.666C92.5535 107.323 92.3785 115.416 92.3785 115.416H109.375C112.856 115.416 116.195 114.034 118.656 111.572C121.118 109.111 122.5 105.772 122.5 102.291V98.3757C122.495 97.3868 122.155 96.4289 121.535 95.6582C120.915 94.8875 120.053 94.3495 119.088 94.132C117.042 93.6472 115.219 92.4861 113.914 90.8367C112.61 89.1872 111.9 87.1458 111.9 85.0429C111.9 82.94 112.61 80.8986 113.914 79.2492C115.219 77.5997 117.042 76.4386 119.088 75.9538ZM92.4878 96.3851C92.4878 96.9653 92.2574 97.5217 91.8471 97.9319C91.4369 98.3421 90.8805 98.5726 90.3003 98.5726C89.7202 98.5726 89.1638 98.3421 88.7535 97.9319C88.3433 97.5217 88.1128 96.9653 88.1128 96.3851V90.4788C88.1128 89.8987 88.3433 89.3423 88.7535 88.9321C89.1638 88.5218 89.7202 88.2913 90.3003 88.2913C90.8805 88.2913 91.4369 88.5218 91.8471 88.9321C92.2574 89.3423 92.4878 89.8987 92.4878 90.4788V96.3851ZM92.4878 79.6507C92.4878 80.2309 92.2574 80.7873 91.8471 81.1975C91.4369 81.6078 90.8805 81.8382 90.3003 81.8382C89.7202 81.8382 89.1638 81.6078 88.7535 81.1975C88.3433 80.7873 88.1128 80.2309 88.1128 79.6507V73.7007C88.1128 73.1206 88.3433 72.5642 88.7535 72.1539C89.1638 71.7437 89.7202 71.5132 90.3003 71.5132C90.8805 71.5132 91.4369 71.7437 91.8471 72.1539C92.2574 72.5642 92.4878 73.1206 92.4878 73.7007V79.6507ZM81.2878 50.4038C80.2378 49.332 78.1159 47.232 77.0659 46.182C76.654 45.773 76.4215 45.2171 76.4194 44.6366C76.4174 44.0561 76.646 43.4986 77.055 43.0867C77.464 42.6747 78.0199 42.4422 78.6004 42.4401C79.1809 42.4381 79.7384 42.6667 80.1503 43.0757L85.116 48.0413L94.5222 38.6351C96.5887 36.557 97.7487 33.7455 97.7487 30.8148C97.7487 27.8841 96.5887 25.0726 94.5222 22.9945L92.5753 21.0257C91.8758 20.3652 90.9781 19.9537 90.0212 19.8548C89.0642 19.7559 88.1013 19.9753 87.2816 20.4788C85.9149 21.2986 84.3135 21.6385 82.7316 21.4446C81.1497 21.2506 79.6779 20.5339 78.5497 19.4083C77.4216 18.2826 76.7016 16.8124 76.5041 15.2309C76.3066 13.6495 76.643 12.0474 77.4597 10.6788C78.0049 9.82594 78.2376 8.81036 78.1179 7.80517C77.9982 6.79998 77.5337 5.86739 76.8035 5.16634L74.8566 3.21946C72.772 1.1569 69.9579 0 67.0253 0C64.0928 0 61.2787 1.1569 59.1941 3.21946L49.766 12.6257L54.6878 17.6788C55.0968 18.0908 55.3255 18.6483 55.3234 19.2288C55.3214 19.8092 55.0888 20.3651 54.6769 20.7742C54.265 21.1832 53.7075 21.4118 53.127 21.4097C52.5465 21.4077 51.9906 21.1751 51.5816 20.7632L46.616 15.7976L12.0097 50.4476L81.2878 50.4038ZM67.441 33.4726C67.6443 33.2676 67.8862 33.1048 68.1528 32.9938C68.4194 32.8827 68.7053 32.8255 68.9941 32.8255C69.2829 32.8255 69.5688 32.8827 69.8353 32.9938C70.1019 33.1048 70.3438 33.2676 70.5472 33.4726L73.9597 36.907C74.3671 37.3168 74.5958 37.8713 74.5958 38.4492C74.5958 39.0271 74.3671 39.5815 73.9597 39.9913C73.5498 40.3988 72.9954 40.6275 72.4175 40.6275C71.8396 40.6275 71.2852 40.3988 70.8753 39.9913L67.441 36.557C67.0335 36.1471 66.8048 35.5927 66.8048 35.0148C66.8048 34.4369 67.0335 33.8824 67.441 33.4726ZM57.8378 23.8695C58.0412 23.6644 58.2831 23.5017 58.5497 23.3906C58.8163 23.2796 59.1022 23.2224 59.391 23.2224C59.6797 23.2224 59.9656 23.2796 60.2322 23.3906C60.4988 23.5017 60.7407 23.6644 60.9441 23.8695L64.3566 27.282C64.7685 27.6939 64.9999 28.2526 64.9999 28.8351C64.9999 29.4176 64.7685 29.9763 64.3566 30.3882C63.9447 30.8001 63.386 31.0315 62.8035 31.0315C62.2209 31.0315 61.6622 30.8001 61.2503 30.3882L57.8378 27.0413C57.6227 26.837 57.4514 26.591 57.3344 26.3184C57.2173 26.0457 57.157 25.7521 57.157 25.4554C57.157 25.1587 57.2173 24.8651 57.3344 24.5924C57.4514 24.3198 57.6227 24.0738 57.8378 23.8695Z" fill="var(--fill-0, #AD4B49)"/>
</g>
</svg>
