<svg width="71" height="53" viewBox="0 0 71 53" fill="none" xmlns="http://www.w3.org/2000/svg">
    <path d="M66.5505 47.8323C66.7523 48.0208 67.0687 48.0099 67.2572 47.8081L70.3282 44.5189C70.5166 44.317 70.5058 44.0006 70.3039 43.8122C70.1021 43.6237 69.7857 43.6346 69.5972 43.8364L66.8675 46.7602L63.9437 44.0304C63.7419 43.8419 63.4255 43.8528 63.237 44.0546C63.0486 44.2565 63.0594 44.5729 63.2613 44.7613L66.5505 47.8323ZM66.8917 47.4669L67.3914 47.4497C67.1732 41.0901 60.2617 27.5406 35.1018 22.3174L35.0002 22.807L34.8986 23.2965C59.7677 28.4593 66.1946 41.7312 66.392 47.484L66.8917 47.4669Z" fill="#656565"/>
    <path d="M2.74222 14.3543C2.45314 14.332 2.28112 14.2786 2.22617 14.1939C2.18054 14.1093 2.15831 14.0204 2.15946 13.927C2.20786 13.7876 2.26086 13.6529 2.31847 13.523C2.38542 13.3931 2.43381 13.2537 2.46366 13.1047C2.49316 12.9837 2.52254 12.8721 2.55181 12.7698C2.58107 12.6675 2.61512 12.5559 2.65396 12.435C2.73139 12.212 2.81879 11.9377 2.91615 11.6122C3.02285 11.2868 3.13422 10.9615 3.25025 10.6363C3.36628 10.311 3.46763 10.0416 3.55427 9.82796C3.63159 9.61424 3.6945 9.433 3.74301 9.28426C3.80086 9.13563 3.85864 8.99167 3.91637 8.85237C3.9741 8.71307 4.03684 8.54584 4.10459 8.35066C4.15276 8.22991 4.1962 8.11377 4.23491 8.00224C4.27374 7.88138 4.31257 7.76052 4.35141 7.63966C4.39957 7.51891 4.44301 7.40277 4.48173 7.29124C4.52989 7.1705 4.57339 7.04969 4.61222 6.92883C4.71753 6.71545 4.80873 6.51123 4.88582 6.31617C4.97224 6.12122 5.04955 5.9075 5.11777 5.67499C5.15614 5.59146 5.15222 5.53074 5.10602 5.49283C5.06915 5.45504 5.05147 5.37548 5.05297 5.25415C5.04502 5.14205 5.074 5.06307 5.13991 5.01721C5.21526 4.96214 5.30876 4.94929 5.4204 4.97868C5.55071 5.00829 5.73241 5.03388 5.9655 5.05543C6.20791 5.07709 6.42711 5.08914 6.6231 5.09156C6.82853 5.08477 6.94064 5.07682 6.95942 5.06772C7.00631 5.04963 7.16065 5.02354 7.42242 4.98944C7.68431 4.94601 8.00226 4.89861 8.37626 4.84723C8.75025 4.79585 9.13353 4.74926 9.52607 4.70745C9.92795 4.66575 10.2831 4.62814 10.5916 4.59462C10.6944 4.57722 10.7924 4.57843 10.8855 4.59825C10.988 4.61819 11.0857 4.63807 11.1788 4.65789C11.2999 4.67805 11.4204 4.74488 11.5404 4.85837C11.6603 4.97187 11.7006 5.10771 11.6613 5.2659C11.6227 5.3681 11.5427 5.42311 11.4213 5.43094C11.2999 5.42944 11.1369 5.40876 10.932 5.36889C10.9133 5.36866 10.8942 5.40576 10.8746 5.48019C10.855 5.55462 10.8306 5.64299 10.8013 5.7453C10.7814 5.84773 10.7474 5.95465 10.6994 6.06606C10.6426 6.1307 10.5757 6.25588 10.4987 6.44161C10.4311 6.62745 10.3585 6.83191 10.2811 7.05497C10.2037 7.27802 10.1405 7.48259 10.0915 7.66867C10.0425 7.85474 10.0176 7.98511 10.0166 8.05977C9.88344 8.26347 9.78735 8.4863 9.72835 8.72826C9.67869 8.97033 9.61519 9.19822 9.53788 9.41195C9.52808 9.44917 9.48914 9.57936 9.42104 9.80254C9.36239 10.0165 9.28916 10.2769 9.20136 10.5839C9.11355 10.8908 9.02575 11.1978 8.93794 11.5047C8.85026 11.8023 8.77709 12.0581 8.71844 12.272C8.65978 12.486 8.63029 12.607 8.62994 12.635C8.6183 12.8215 8.5926 13.0125 8.55284 13.2081C8.52242 13.4037 8.50139 13.5948 8.48975 13.7813C8.49862 13.8188 8.50288 13.8515 8.50253 13.8795C8.5023 13.8982 8.48341 13.9166 8.44585 13.9348C8.37038 13.9992 8.24398 14.0303 8.06666 14.0281C7.88946 14.0166 7.77787 13.9825 7.7319 13.926C7.69549 13.8508 7.66364 13.7851 7.63633 13.7288C7.60914 13.6631 7.60068 13.593 7.61093 13.5184C7.63283 13.2573 7.66873 12.9964 7.71862 12.7357C7.76852 12.475 7.81363 12.2235 7.85397 11.9813C7.90363 11.7392 7.96234 11.5206 8.03009 11.3254C8.09785 11.1303 8.14584 11.0235 8.17406 11.0052L8.45234 10.0146C8.55846 9.73586 8.62651 9.51735 8.65647 9.35904C8.68654 9.1914 8.71656 9.02843 8.74652 8.87012C8.78581 8.71193 8.85368 8.50742 8.95013 8.25659C9.04634 8.02443 9.12389 7.79204 9.18277 7.55942C9.2511 7.31758 9.31937 7.0804 9.38758 6.8479C9.45568 6.62472 9.52344 6.42954 9.59084 6.26237C9.65837 6.08585 9.7116 5.9325 9.75055 5.80231C9.79883 5.67223 9.81888 5.56047 9.8107 5.46702C9.60515 5.48315 9.41354 5.50411 9.23588 5.52992C9.06754 5.55584 8.88988 5.58164 8.70288 5.60733C8.52533 5.6238 8.30566 5.64909 8.04389 5.68319C7.885 5.69989 7.67462 5.72995 7.41273 5.77338C7.15095 5.80748 6.90784 5.84181 6.6834 5.87637C6.4684 5.90171 6.3329 5.91404 6.27691 5.91334C6.21146 5.92187 6.15524 5.93984 6.10823 5.96726C6.06122 5.99468 6.03742 6.03172 6.03685 6.07839C5.89339 6.35663 5.75455 6.63961 5.62031 6.9273C5.48619 7.20566 5.36619 7.47487 5.2603 7.73491C5.16385 7.98573 5.09109 8.20885 5.042 8.40426C5.02287 8.44136 4.98439 8.53422 4.92654 8.68285C4.8687 8.83148 4.80124 9.00333 4.72415 9.19839C4.64707 9.39345 4.57476 9.57924 4.50724 9.75575C4.43972 9.93226 4.38666 10.0716 4.34806 10.1738C4.3189 10.2668 4.30928 10.29 4.31919 10.2435C4.17366 10.6897 4.05262 11.0429 3.95606 11.303C3.86895 11.554 3.79647 11.7538 3.73863 11.9024C3.68078 12.051 3.6325 12.1811 3.59379 12.2926C3.55507 12.4042 3.51607 12.539 3.47677 12.6972C3.41893 12.8459 3.37036 12.9993 3.33107 13.1575C3.29178 13.3157 3.25248 13.4738 3.21319 13.632C3.20328 13.6786 3.18865 13.7297 3.16929 13.7855C3.15926 13.8414 3.13916 13.9578 3.10896 14.1348C3.07071 14.209 3.02335 14.2644 2.9669 14.301C2.91966 14.3471 2.84476 14.3649 2.74222 14.3543ZM13.3287 13.6732C13.1306 13.8387 12.9007 13.9339 12.6391 13.9587C12.3868 13.9835 12.1399 13.9432 11.8985 13.8375C11.6573 13.7225 11.4587 13.552 11.3028 13.3261C11.1467 13.1188 11.0469 12.8842 11.0035 12.6223C10.9602 12.3511 10.9598 12.0011 11.0025 11.5722C11.035 11.2086 11.1561 10.8461 11.366 10.4846C11.5759 10.1139 11.8273 9.78563 12.1202 9.4999C12.4224 9.21429 12.7189 9.01727 13.0096 8.90886C13.1507 8.81726 13.2679 8.77671 13.3611 8.7872C13.4638 8.78847 13.6176 8.79971 13.8227 8.82091C14.037 8.85156 14.1952 8.89552 14.2971 8.95279C14.4084 9.01017 14.4962 9.08593 14.5603 9.18006C14.6986 9.32178 14.7902 9.46293 14.8351 9.60349C14.8802 9.73473 14.9019 9.86567 14.9003 9.99633C14.8604 10.2012 14.7173 10.4514 14.471 10.7471C14.2341 11.0335 13.9231 11.2677 13.5382 11.4496C13.3321 11.5124 13.1077 11.5376 12.8652 11.5253C12.6227 11.5129 12.4228 11.4498 12.2655 11.3358C12.0891 11.259 11.9723 11.2715 11.915 11.3735C11.8579 11.4661 11.8036 11.6988 11.7524 12.0715C11.7106 12.4257 11.7354 12.6874 11.8267 12.8565C11.918 13.0163 12.0429 13.1112 12.2012 13.1412C12.3874 13.1808 12.5317 13.2106 12.6341 13.2305C12.746 13.2413 12.8818 13.2009 13.0416 13.1096C13.1921 13.0181 13.2861 12.9679 13.3235 12.9591C13.3611 12.9408 13.3893 12.9225 13.4082 12.9041C13.4365 12.8764 13.498 12.8165 13.5924 12.7244C13.6586 12.6598 13.7105 12.6138 13.7482 12.5863C13.7859 12.5494 13.8282 12.5313 13.8748 12.5318C13.9215 12.5324 13.9632 12.5563 14 12.6034C14.0368 12.6412 14.0738 12.6696 14.1109 12.6888C14.2042 12.6899 14.2222 12.7462 14.1648 12.8575C14.1168 12.9689 14.0171 13.103 13.8658 13.2598C13.7147 13.4073 13.5356 13.5451 13.3287 13.6732ZM13.3514 10.7052C13.4546 10.6598 13.5628 10.5958 13.6758 10.5132C13.7889 10.4213 13.8835 10.3244 13.9594 10.2227C14.0448 10.1118 14.0879 10.019 14.0889 9.94429C14.0905 9.81363 14.0311 9.70556 13.9109 9.62006C13.7907 9.52524 13.6089 9.50899 13.3654 9.57131C13.2624 9.59804 13.1449 9.66659 13.0128 9.77697C12.8809 9.87801 12.7535 9.99311 12.6305 10.1223C12.5169 10.2515 12.4222 10.367 12.3462 10.4688C12.2796 10.5706 12.2556 10.631 12.274 10.6499C12.3014 10.6969 12.3803 10.7352 12.5106 10.7648C12.641 10.7851 12.7856 10.7916 12.9444 10.7842C13.1125 10.7769 13.2482 10.7506 13.3514 10.7052ZM14.8264 17.318C14.7891 17.3175 14.7424 17.3169 14.6864 17.3162C14.6303 17.3249 14.5795 17.2869 14.5338 17.2023C14.4971 17.1552 14.4746 17.0849 14.4664 16.9915C14.4676 16.8982 14.493 16.7305 14.5427 16.4884C14.5913 16.3303 14.6306 16.1721 14.6606 16.0138C14.6904 15.8649 14.7058 15.753 14.7067 15.6784C14.7072 15.641 14.7174 15.5665 14.7375 15.4547C14.7667 15.3524 14.7817 15.2779 14.7822 15.2313C14.8298 15.1572 14.8684 15.055 14.898 14.9247C14.9277 14.7944 14.9431 14.6779 14.9444 14.5752C14.9458 14.4632 15.003 14.3613 15.1162 14.2693C15.1171 14.1947 15.1322 14.1015 15.1616 13.9899C15.2003 13.8783 15.2199 13.8039 15.2204 13.7666C15.25 13.6363 15.3135 13.4084 15.4109 13.0829C15.5177 12.7482 15.6437 12.3717 15.7889 11.9535C15.9434 11.5354 16.0931 11.1265 16.2381 10.7269C16.383 10.3274 16.5132 9.98828 16.6287 9.70969C16.7439 9.44976 16.8213 9.2267 16.861 9.04051C16.9101 8.8451 16.9352 8.70074 16.9363 8.60741C16.9368 8.57008 16.9465 8.5422 16.9654 8.52376C16.9844 8.496 17.027 8.44519 17.0933 8.37133C17.1878 8.27916 17.2674 8.25215 17.3323 8.29028C17.4065 8.32854 17.4945 8.38563 17.5962 8.46156C17.6694 8.58381 17.7194 8.6871 17.7464 8.77144C17.7827 8.8559 17.7809 9.00055 17.741 9.20541C17.7393 9.3454 17.7144 9.46644 17.6665 9.56852C17.6186 9.6706 17.5756 9.74941 17.5376 9.80494C17.4997 9.85114 17.4901 9.86969 17.5089 9.86059C17.8937 9.688 18.2309 9.59883 18.5203 9.59308C18.8192 9.57811 19.0658 9.6325 19.2603 9.75625C19.4642 9.87078 19.6163 10.0313 19.7164 10.2379C19.8165 10.4445 19.8649 10.6831 19.8615 10.9538C19.8602 11.0658 19.8352 11.2008 19.7865 11.3589C19.738 11.5076 19.6756 11.6469 19.5993 11.7766C19.5325 11.8971 19.4708 11.985 19.4141 12.0403C19.3767 12.0399 19.339 12.0721 19.3009 12.1369C19.2628 12.1925 19.2247 12.2573 19.1865 12.3315C19.1106 12.4239 18.988 12.5298 18.8185 12.649C18.6585 12.759 18.4986 12.8504 18.3391 12.9231C18.1796 12.9865 18.0627 13.0037 17.9884 12.9748C17.9884 12.9748 17.9743 12.9793 17.9462 12.9882C17.9276 12.988 17.9179 13.0112 17.9174 13.0579C17.9171 13.0766 17.842 13.1176 17.6918 13.1811C17.5418 13.2353 17.3685 13.2891 17.1718 13.3427C16.9752 13.3869 16.8023 13.4081 16.653 13.4063C16.457 13.4038 16.3175 13.3648 16.2344 13.2891C16.2155 13.3075 16.1918 13.3352 16.1633 13.3722C16.1442 13.4093 16.1345 13.4419 16.1341 13.4699C16.1334 13.5259 16.1088 13.6329 16.0602 13.791C16.021 13.9398 15.9725 14.0839 15.9148 14.2232C15.8571 14.3625 15.8049 14.4319 15.7582 14.4313C15.7582 14.4313 15.7487 14.4452 15.7297 14.4729C15.7107 14.5007 15.7196 14.5381 15.7563 14.5853C15.7563 14.5853 15.751 14.6365 15.7404 14.7391C15.739 14.8511 15.7145 14.9441 15.6669 15.0182C15.666 15.0929 15.6506 15.2047 15.6208 15.3537C15.591 15.5026 15.5569 15.6142 15.5186 15.6884C15.5173 15.8004 15.4973 15.9075 15.4587 16.0097C15.4293 16.1213 15.3959 16.1769 15.3586 16.1765C15.3212 16.1853 15.2971 16.2411 15.2865 16.3436C15.2758 16.4555 15.2702 16.5347 15.2696 16.5814C15.2574 16.8146 15.2084 16.996 15.1228 17.1256C15.0372 17.2552 14.9384 17.3194 14.8264 17.318ZM16.5781 12.6633C16.6528 12.6642 16.8072 12.6335 17.0413 12.571C17.2755 12.5086 17.5144 12.4322 17.7582 12.3419C18.0115 12.2423 18.1994 12.142 18.322 12.0408C18.5673 11.8292 18.7569 11.5888 18.8909 11.3198C19.0344 11.0416 19.0284 10.7755 18.8728 10.5215C18.7998 10.3899 18.6651 10.3369 18.4688 10.3625C18.2725 10.3787 18.057 10.4507 17.822 10.5785C17.5871 10.7063 17.3658 10.8669 17.158 11.0603C17.0445 11.1803 16.94 11.3283 16.8445 11.5045C16.749 11.6807 16.6675 11.857 16.5999 12.0335C16.5418 12.2101 16.5072 12.3591 16.4964 12.4803C16.4856 12.6015 16.5128 12.6625 16.5781 12.6633ZM22.0452 14.313C21.6345 14.308 21.3005 14.1498 21.043 13.8386C20.7856 13.5181 20.6644 13.1245 20.6795 12.658C20.7024 12.3223 20.7721 11.9638 20.8889 11.5825C21.015 11.1921 21.1783 10.8207 21.3787 10.4685C21.5792 10.107 21.7977 9.79231 22.0344 9.52455C22.2711 9.25679 22.5161 9.06847 22.7695 8.95959C22.8634 8.91409 22.9618 8.87797 23.0648 8.85124C23.1772 8.82463 23.2893 8.81201 23.4013 8.8134C23.504 8.81467 23.6111 8.83466 23.7226 8.87338C23.8342 8.90276 23.9272 8.93658 24.0014 8.97484C24.1592 9.04213 24.2795 9.12295 24.3624 9.21732C24.4452 9.31169 24.5181 9.45726 24.581 9.65406C24.6068 9.83172 24.6192 9.95789 24.6183 10.0325C24.6174 10.1072 24.5927 10.2189 24.5442 10.3677C24.428 10.7022 24.2798 10.9898 24.0995 11.2302C23.9191 11.4707 23.6786 11.673 23.3779 11.8373C23.3027 11.8831 23.2135 11.9193 23.1105 11.946C23.017 11.9636 22.9189 11.9717 22.8162 11.9704C22.6296 11.9681 22.448 11.9332 22.2715 11.8657C22.1044 11.7889 21.9704 11.6799 21.8695 11.5387L21.7729 11.4255L21.7295 11.5369C21.633 11.7878 21.5555 12.0201 21.4969 12.2341C21.4475 12.4482 21.4218 12.6439 21.4196 12.8212C21.4182 12.9332 21.4262 13.0406 21.4436 13.1435C21.4703 13.2465 21.5066 13.3356 21.5523 13.4109C21.5889 13.4673 21.6491 13.5101 21.7327 13.5391C21.8258 13.5589 21.9237 13.5695 22.0264 13.5708C22.0917 13.5716 22.157 13.5724 22.2223 13.5732C22.2971 13.5648 22.3673 13.547 22.433 13.5198C22.5924 13.4657 22.7191 13.4066 22.8132 13.3425C22.9167 13.2784 23.0202 13.2097 23.1238 13.1363L23.1802 13.109L23.1662 13.1088C23.2788 13.0542 23.3775 12.9994 23.4622 12.9445C23.5562 12.8896 23.6032 12.8622 23.6032 12.8622C23.6406 12.8627 23.6782 12.8398 23.7161 12.7936C23.7912 12.7572 23.8844 12.7723 23.9956 12.8391C24.1161 12.9059 24.1757 12.9906 24.1744 13.0933C24.1645 13.1398 24.1216 13.214 24.0457 13.3157C23.9699 13.4081 23.8848 13.4957 23.7904 13.5786C23.7054 13.6615 23.6348 13.7073 23.5787 13.716C23.5692 13.7252 23.5363 13.7434 23.48 13.7708C23.4238 13.7887 23.3862 13.8069 23.3673 13.8254L23.3813 13.8255C23.2959 13.9365 23.2112 13.9914 23.1272 13.9904L23.0153 13.989C22.9771 14.0539 22.8549 14.127 22.6485 14.2085C22.4423 14.2806 22.2412 14.3155 22.0452 14.313ZM22.7132 11.2411C22.8812 11.2432 23.0264 11.1983 23.1489 11.1065C23.2809 11.0054 23.3942 10.8948 23.4891 10.7746C23.6788 10.525 23.7892 10.2836 23.82 10.0507C23.8604 9.80849 23.8345 9.64015 23.7423 9.54567C23.6866 9.51698 23.6355 9.50235 23.5888 9.50177C23.5516 9.49198 23.4721 9.505 23.3503 9.54082C23.2661 9.55845 23.1486 9.627 22.9977 9.74648C22.8469 9.86596 22.6959 9.99943 22.5448 10.1469C22.4029 10.2945 22.294 10.4192 22.2181 10.5209L22.0325 10.8126C22.1075 10.7855 22.1777 10.7724 22.243 10.7732C22.3178 10.7648 22.3597 10.77 22.3688 10.7888C22.3678 10.8728 22.3808 10.9523 22.4078 11.0273C22.4444 11.0931 22.4857 11.1449 22.5319 11.1828C22.5875 11.2209 22.6479 11.2403 22.7132 11.2411ZM25.423 14.2428C25.3487 14.2139 25.2701 14.1569 25.1871 14.0719C25.1043 13.9775 25.0356 13.8693 24.9811 13.7473C24.9266 13.6253 24.9 13.513 24.9013 13.4103C24.9492 13.3082 25.0121 13.1317 25.0899 12.8806C25.1678 12.6202 25.2648 12.3227 25.3809 11.9881C25.4569 11.8864 25.5144 11.7658 25.5534 11.6262C25.6018 11.4868 25.6454 11.3614 25.6841 11.2498C25.7606 11.1014 25.8516 10.9112 25.9572 10.6792C26.0628 10.4378 26.1638 10.1963 26.2601 9.95485C26.3659 9.70414 26.4572 9.49525 26.5339 9.32819C26.6396 9.08681 26.7021 8.93824 26.7214 8.88248C26.7409 8.81738 26.7556 8.76622 26.7653 8.72901C26.7663 8.65435 26.7857 8.59392 26.8236 8.54771C26.8616 8.49218 26.8993 8.46464 26.9366 8.46511C26.9744 8.42824 27.0166 8.41009 27.0633 8.41067C27.1194 8.40203 27.1661 8.39794 27.2035 8.3984C27.3061 8.39967 27.3939 8.47076 27.4669 8.61168C27.5399 8.74326 27.5757 8.86504 27.5743 8.97703C27.573 9.08903 27.529 9.24716 27.4425 9.45144C27.3654 9.6465 27.2742 9.85072 27.1689 10.0641C27.0729 10.2776 26.9912 10.4633 26.924 10.6211C26.8567 10.779 26.8368 10.8721 26.8645 10.9004C26.8645 10.9004 26.9302 10.8732 27.0615 10.8188C27.193 10.7551 27.3341 10.6682 27.4848 10.558C27.5881 10.5033 27.701 10.4347 27.8233 10.3522C27.9457 10.2697 28.0634 10.1918 28.1763 10.1186C28.2893 10.036 28.3833 9.98578 28.4581 9.96804C28.5711 9.89477 28.6886 9.82622 28.8107 9.76239C28.933 9.68923 29.013 9.63421 29.0508 9.59735C29.2104 9.52465 29.3273 9.50276 29.4016 9.53168C29.4853 9.56072 29.5684 9.63175 29.651 9.74478C29.7522 9.86738 29.7695 9.97493 29.703 10.0674C29.6366 10.1506 29.4812 10.2654 29.2367 10.4117C29.0392 10.5306 28.7995 10.6723 28.5174 10.8368C28.2447 11.0015 28.0002 11.1478 27.7839 11.2758C27.577 11.4039 27.4593 11.4818 27.431 11.5095C27.431 11.5095 27.4675 11.5799 27.5404 11.7208C27.6133 11.8617 27.6864 11.9887 27.7597 12.1016C27.8325 12.2518 27.9101 12.3928 27.9925 12.5245C28.0843 12.647 28.1299 12.7315 28.1294 12.7782C28.2016 12.9751 28.2929 13.1396 28.4033 13.2716C28.5138 13.3943 28.6388 13.4752 28.7783 13.5143C28.9273 13.5441 29.0768 13.5273 29.227 13.4638C29.4145 13.3915 29.5502 13.3698 29.6338 13.3988C29.7268 13.428 29.7912 13.4988 29.8272 13.6113C29.8636 13.6864 29.8722 13.7425 29.8531 13.7796C29.8434 13.8075 29.7819 13.8767 29.6685 13.9873C29.489 14.1624 29.3056 14.2722 29.1184 14.3165C28.9405 14.361 28.7774 14.345 28.629 14.2685C28.5356 14.2673 28.4288 14.2287 28.3084 14.1525C28.1881 14.067 28.0404 13.9298 27.8654 13.741C27.6998 13.5523 27.493 13.2884 27.2452 12.9493C27.2456 12.9119 27.2276 12.8604 27.1911 12.7946C27.164 12.7196 27.1322 12.6492 27.0957 12.5834C27.0593 12.5083 27.0136 12.4284 26.9586 12.3437C26.9038 12.2497 26.8764 12.2026 26.8764 12.2026C26.8767 12.1746 26.8677 12.1512 26.8493 12.1323C26.8403 12.1042 26.822 12.0713 26.7945 12.0336C26.7763 11.9961 26.7535 11.9538 26.726 11.9068C26.5773 11.8583 26.4696 11.8849 26.403 11.9868C26.3364 12.0886 26.2651 12.1951 26.1891 12.3062C26.1409 12.4269 26.0781 12.5988 26.0007 12.8219C25.9327 13.0357 25.8741 13.245 25.8249 13.4497C25.785 13.6546 25.7739 13.7945 25.7917 13.8694C25.7898 14.0187 25.7652 14.121 25.7179 14.1765C25.6706 14.2226 25.5724 14.2447 25.423 14.2428ZM30.2745 13.9388C30.1991 13.9939 30.0916 14.0066 29.952 13.9768C29.8123 13.9471 29.7007 13.9177 29.617 13.8887C29.5988 13.8511 29.5807 13.8089 29.5626 13.762C29.5445 13.7151 29.531 13.6729 29.5221 13.6355C29.5134 13.5887 29.5046 13.5419 29.4959 13.4951C29.4965 13.4485 29.4876 13.4064 29.4694 13.3688C29.4978 13.3412 29.5215 13.3135 29.5405 13.2857C29.5688 13.258 29.5971 13.235 29.6253 13.2167C29.672 13.2173 29.7233 13.2179 29.7793 13.2186C29.8353 13.2193 29.8866 13.22 29.9333 13.2205C29.9802 13.2025 30.0179 13.1749 30.0463 13.1379C30.0842 13.0917 30.1312 13.069 30.1872 13.0697C30.3941 12.9416 30.5973 12.7387 30.7968 12.4612C31.0056 12.1837 31.2054 11.8735 31.3963 11.5305C31.5966 11.1876 31.7734 10.8538 31.9268 10.529C32.0896 10.195 32.2237 9.91662 32.3291 9.69391C32.3293 9.67524 32.3295 9.66124 32.3296 9.65191C32.3298 9.64258 32.3252 9.63319 32.316 9.62374C32.2504 9.6416 32.1802 9.6594 32.1053 9.67714C32.0305 9.68555 31.9556 9.70329 31.8806 9.73036C31.8712 9.73958 31.8571 9.74874 31.8383 9.75784C31.8195 9.76694 31.8054 9.7761 31.7959 9.78532C31.6922 9.86804 31.5566 9.8897 31.3891 9.85029C31.2309 9.811 31.1199 9.73028 31.0561 9.60815C31.0379 9.57059 31.0196 9.5377 31.0013 9.50947C30.983 9.48124 30.9601 9.44829 30.9325 9.41061C30.9709 9.32708 31.0279 9.24844 31.1034 9.17471C31.1885 9.09175 31.2778 9.04152 31.3713 9.02401C31.624 8.97113 31.8718 8.93219 32.1148 8.9072C32.3673 8.87298 32.6194 8.86677 32.8711 8.88855C33.1229 8.91033 33.3695 8.96939 33.611 9.06572C33.6575 9.07563 33.6994 9.08548 33.7366 9.09527C33.7738 9.10507 33.8109 9.12419 33.8479 9.15265C33.9035 9.19068 33.9589 9.23337 34.0144 9.28072C34.0698 9.32808 34.1205 9.37538 34.1666 9.42262C34.2313 9.47942 34.2818 9.54072 34.3184 9.60651C34.3549 9.6723 34.3773 9.74725 34.3856 9.83136C34.4031 9.92491 34.4112 10.023 34.4099 10.1257C34.418 10.2285 34.4121 10.3311 34.3921 10.4335C34.3426 10.6662 34.2645 10.9453 34.1578 11.2706C34.0605 11.5868 33.9731 11.8611 33.8956 12.0935C33.7791 12.4561 33.677 12.7815 33.5895 13.0698C33.502 13.3487 33.4193 13.623 33.3413 13.8927C33.2195 13.9286 33.1029 13.9225 32.9915 13.8744C32.88 13.8264 32.7829 13.7552 32.7001 13.6608C32.6644 13.5297 32.6472 13.4081 32.6486 13.2961C32.6501 13.1748 32.6842 13.0539 32.7511 12.9334C32.818 12.8035 32.8668 12.6361 32.8973 12.4311C32.9278 12.2262 32.9905 12.0636 33.0853 11.9434C33.1045 11.9063 33.1142 11.8738 33.1146 11.8458C33.1153 11.7898 33.1352 11.6827 33.1745 11.5245C33.2232 11.3664 33.2767 11.1897 33.3351 10.9945C33.3936 10.7898 33.4473 10.5991 33.4962 10.4224C33.5544 10.2458 33.5934 10.1109 33.6132 10.0178C33.6326 9.96205 33.6332 9.91072 33.6151 9.86383C33.6064 9.81705 33.6023 9.76566 33.603 9.70967C33.5288 9.67141 33.4218 9.64209 33.2821 9.62169C33.1517 9.60141 33.0624 9.64697 33.0144 9.75839C33.0048 9.77694 32.9952 9.80015 32.9855 9.82804C32.9853 9.8467 32.9804 9.86531 32.9708 9.88386C32.8933 10.1163 32.7878 10.339 32.6545 10.552C32.5305 10.7651 32.4149 11.0577 32.3076 11.4298C32.2784 11.5321 32.2352 11.6296 32.178 11.7222C32.1303 11.8056 32.0872 11.8984 32.0486 12.0006C32.0484 12.0099 32.0437 12.0192 32.0342 12.0284C32.0341 12.0378 32.0293 12.047 32.0199 12.0563C32.0198 12.0656 32.015 12.0749 32.0055 12.0841C31.9392 12.1673 31.8774 12.2552 31.8202 12.3478C31.7725 12.4312 31.7201 12.5193 31.663 12.6119C31.5011 12.8712 31.2881 13.1113 31.024 13.332C30.7693 13.5529 30.5194 13.7552 30.2745 13.9388ZM36.7013 11.9462C36.5754 12.318 36.4308 12.6895 36.2675 13.0609C36.1042 13.4322 35.9829 13.8088 35.9035 14.1905C35.8933 14.2557 35.8741 14.3021 35.8458 14.3298C35.8174 14.3574 35.7705 14.3802 35.7049 14.398C35.5362 14.4519 35.4196 14.4458 35.3551 14.3797C35.2907 14.3042 35.2078 14.2145 35.1064 14.1106C35.0799 13.9889 35.0721 13.8675 35.0829 13.7463C35.1031 13.6252 35.1419 13.509 35.1992 13.3977C35.314 13.1751 35.4148 12.9523 35.5015 12.7294C35.5883 12.5064 35.6705 12.2788 35.748 12.0464C35.6932 11.9524 35.6383 11.863 35.5833 11.7783C35.5378 11.6844 35.4923 11.5905 35.4468 11.4966C35.5234 11.3389 35.59 11.237 35.6466 11.1911C35.7125 11.1452 35.8483 11.1095 36.0539 11.0841C36.1394 10.9638 36.2209 10.7875 36.2985 10.5551C36.3854 10.3228 36.4677 10.0811 36.5455 9.83007C36.604 9.62545 36.6624 9.43482 36.7206 9.2582C36.7882 9.07235 36.8555 8.91451 36.9224 8.78466C36.9987 8.65492 37.0791 8.56725 37.1637 8.52162C37.2476 8.53199 37.3593 8.55204 37.499 8.58177C37.6386 8.6115 37.7125 8.67776 37.7205 8.78053C37.7381 8.87409 37.7223 9.01857 37.6732 9.21398C37.6242 9.40005 37.561 9.60929 37.4834 9.84168C37.406 10.0647 37.3287 10.2785 37.2515 10.4829C37.1837 10.678 37.1305 10.8314 37.0918 10.9429C37.2504 10.9449 37.4184 10.947 37.5957 10.9492C37.773 10.9513 37.9412 10.9348 38.1004 10.8994C38.2127 10.8728 38.3249 10.8555 38.437 10.8476C38.5491 10.8396 38.6659 10.8364 38.7872 10.8379L38.4961 11.7304C38.4215 11.7294 38.3467 11.7332 38.272 11.7416C38.2066 11.7408 38.1365 11.7539 38.0615 11.781C37.8645 11.8532 37.6496 11.8786 37.4165 11.857C37.1834 11.8355 36.945 11.8652 36.7013 11.9462ZM41.0188 9.26937C41.2513 9.33758 41.4228 9.43304 41.5333 9.55575C41.6437 9.67846 41.7302 9.85688 41.7926 10.091C41.9083 10.5498 41.8979 11.0164 41.7613 11.4907C41.6342 11.9559 41.4281 12.3967 41.1429 12.8132C40.8579 13.2203 40.5408 13.5711 40.1918 13.8655C40.0409 13.9943 39.8761 14.1136 39.6974 14.2234C39.5188 14.3239 39.336 14.3823 39.1492 14.3986C38.9624 14.4057 38.7718 14.3426 38.5775 14.2095C38.4387 14.1052 38.3051 13.9635 38.1767 13.7846C38.0483 13.5963 37.9899 13.4136 38.0015 13.2363C38.0115 13.1805 38.0168 13.1292 38.0174 13.0825C38.018 13.0265 38.0094 12.9704 37.9914 12.9142C37.9543 12.8951 37.936 12.8715 37.9363 12.8435C37.9461 12.8063 37.9605 12.7738 37.9795 12.746C38.0263 12.7373 38.0452 12.7142 38.0364 12.6767C38.0275 12.6393 38.0185 12.6112 38.0094 12.5924C37.9823 12.5174 37.9885 12.3961 38.0279 12.2286C38.0674 12.0517 38.1162 11.8797 38.1743 11.7124C38.2418 11.5359 38.2901 11.4104 38.319 11.3361C38.4533 11.0391 38.6109 10.7517 38.7917 10.4739C38.9725 10.1961 39.1856 9.94674 39.431 9.72576C39.6764 9.50478 39.9539 9.33553 40.2633 9.21802C40.4416 9.14555 40.5728 9.10517 40.6569 9.09688C40.7411 9.07925 40.8617 9.13675 41.0188 9.26937ZM40.2897 12.7466C40.4795 12.4969 40.6321 12.2328 40.7475 11.9542C40.8723 11.6757 40.9599 11.3828 41.0104 11.0754C41.0702 10.7681 41.064 10.516 40.9918 10.3191C40.9196 10.1129 40.795 10.004 40.6178 9.99246C40.4406 9.98094 40.215 10.1088 39.941 10.3761C39.7802 10.5421 39.6282 10.7643 39.4847 11.0425C39.3414 11.3114 39.2165 11.5946 39.1102 11.892C39.0039 12.18 38.9168 12.4356 38.8487 12.6588C38.8096 12.7983 38.7889 12.9661 38.7864 13.1621C38.7935 13.3488 38.843 13.4941 38.935 13.5979C39.0364 13.7019 39.1998 13.6992 39.4252 13.59C39.6035 13.5082 39.7638 13.3842 39.9058 13.2179C40.0479 13.0516 40.1758 12.8946 40.2897 12.7466ZM45.0119 14.3452C44.9284 14.3068 44.8449 14.2637 44.7615 14.216C44.6874 14.1685 44.6276 14.0977 44.5821 14.0038C44.5088 13.8909 44.4685 13.7551 44.4611 13.5963C44.4631 13.4376 44.4701 13.2464 44.4822 13.0225C44.4827 12.9852 44.5023 12.9061 44.5412 12.7852C44.58 12.6643 44.6236 12.5342 44.672 12.3948C44.7298 12.2462 44.7781 12.1208 44.8167 12.0186C44.8554 11.907 44.8748 11.8466 44.8749 11.8373C44.7814 11.8548 44.7016 11.8865 44.6357 11.9323C44.5698 11.9782 44.5039 12.024 44.438 12.0699C44.3435 12.1621 44.2164 12.2538 44.0566 12.3452C43.8968 12.4365 43.7512 12.5047 43.62 12.5498C43.5262 12.586 43.3957 12.5704 43.2285 12.503C43.0708 12.4263 42.9554 12.3222 42.8824 12.1906C42.8552 12.125 42.8326 12.064 42.8146 12.0078C42.8061 11.9423 42.7976 11.8769 42.7891 11.8115C42.7555 11.503 42.8106 11.205 42.9541 10.9174C43.0691 10.6762 43.1887 10.4396 43.3129 10.2078C43.4373 9.96667 43.5569 9.73013 43.6718 9.4982C43.7193 9.42412 43.7669 9.3547 43.8143 9.28995C43.8619 9.21587 43.8955 9.14161 43.9151 9.06718C43.9248 9.0393 43.9533 8.99765 44.0007 8.94223C44.048 8.88681 44.0997 8.85945 44.1557 8.86014C44.2582 8.87074 44.3513 8.89523 44.4348 8.9336C44.5278 8.96275 44.6063 9.02906 44.6704 9.13253C44.7255 9.19855 44.7526 9.27356 44.7516 9.35755C44.7506 9.43221 44.7123 9.51574 44.6365 9.60815C44.4561 9.8486 44.2896 10.1032 44.137 10.372C43.9936 10.6409 43.855 10.9099 43.721 11.1789C43.6827 11.2531 43.6489 11.3414 43.6197 11.4437C43.5904 11.546 43.5845 11.644 43.602 11.7375C43.742 11.7392 43.9344 11.6576 44.1791 11.4926C44.424 11.3183 44.6831 11.1208 44.9565 10.9002C45.2299 10.6796 45.4703 10.4865 45.6777 10.3211C45.8946 10.1464 46.0839 9.93408 46.2456 9.68406C46.2932 9.60997 46.3499 9.55467 46.4157 9.51815C46.4816 9.47229 46.5706 9.44539 46.6827 9.43745C46.7106 9.44712 46.7477 9.46625 46.794 9.49483C46.8403 9.5234 46.8914 9.54737 46.9472 9.56673C46.9924 9.67929 47.0333 9.76847 47.0699 9.83426C47.1157 9.90017 47.1336 9.96573 47.1234 10.0309C47.1133 10.0962 47.0467 10.1933 46.9238 10.3225C46.877 10.3313 46.7967 10.4096 46.6829 10.5575C46.5692 10.6961 46.4552 10.8534 46.341 11.0293C46.2269 11.1959 46.1412 11.3349 46.0838 11.4462C46.0553 11.4925 46.0173 11.5434 45.9699 11.5988C45.932 11.645 45.894 11.7005 45.8559 11.7654L45.308 13.0467C45.2976 13.1306 45.2825 13.2237 45.2625 13.3262C45.2427 13.4193 45.2511 13.494 45.2877 13.5505C45.3624 13.5514 45.4279 13.5429 45.4841 13.5249C45.5403 13.507 45.5867 13.5309 45.6232 13.5967C45.668 13.7466 45.69 13.8542 45.6892 13.9195C45.6979 13.9756 45.6312 14.0821 45.4892 14.239C45.3569 14.3774 45.1977 14.4128 45.0119 14.3452ZM50.6103 14.5964C50.5181 14.5019 50.4264 14.3748 50.335 14.215C50.2438 14.0458 50.1715 13.8536 50.1181 13.6383C50.1004 13.5634 50.0923 13.4606 50.0939 13.3299C50.1049 13.1994 50.106 13.1061 50.0974 13.05C50.0686 13.1149 50.0211 13.1844 49.9548 13.2582C49.898 13.3228 49.8413 13.3782 49.7847 13.4241C49.747 13.461 49.662 13.5346 49.53 13.645C49.3981 13.746 49.2664 13.8284 49.1349 13.8921C48.8245 14.0843 48.5665 14.1884 48.361 14.2046C48.1648 14.2208 47.9794 14.1158 47.8048 13.8897C47.657 13.7665 47.5514 13.6298 47.4879 13.4797C47.4337 13.3297 47.4363 13.1244 47.4955 12.8638C47.5182 12.5374 47.5688 12.2206 47.6473 11.9136C47.7259 11.5972 47.885 11.1791 48.1248 10.6594C48.3255 10.2792 48.4783 10.001 48.5832 9.82498C48.6881 9.6396 48.7549 9.52842 48.7833 9.49143C48.9239 9.4465 49.0405 9.45261 49.1331 9.50976C49.2259 9.55758 49.2808 9.64693 49.2978 9.77782C49.3527 9.87184 49.3414 10.0304 49.2639 10.2534C49.1958 10.4766 49.0758 10.7505 48.9037 11.075C48.7692 11.3907 48.6439 11.7065 48.528 12.0225C48.4214 12.3385 48.3574 12.6084 48.336 12.8322C48.3145 13.0559 48.3688 13.1919 48.4989 13.2402C48.5823 13.2879 48.7272 13.2757 48.9334 13.2036C49.149 13.1316 49.3893 12.9479 49.6543 12.6525C49.9286 12.3572 50.1955 11.9078 50.455 11.3043C50.532 11.1185 50.59 10.9559 50.6291 10.8164C50.6682 10.6675 50.6936 10.5045 50.7051 10.3273C50.6878 10.215 50.6937 10.1171 50.7228 10.0335C50.7612 9.9406 50.8369 9.8622 50.9497 9.79826C50.9876 9.75205 51.0394 9.71069 51.1052 9.67417C51.1711 9.62832 51.2131 9.62884 51.2312 9.67573L51.4554 9.6645C51.4928 9.65563 51.5159 9.67925 51.5245 9.73536C51.5426 9.78226 51.5747 9.82466 51.6209 9.86256C51.7226 9.94783 51.7483 10.1302 51.6982 10.4096C51.6481 10.689 51.5126 11.0793 51.2917 11.5806C51.1096 11.9611 50.9847 12.2489 50.917 12.4441C50.8585 12.6393 50.8235 12.8303 50.8119 13.0168C50.8098 13.1848 50.8405 13.3438 50.904 13.494C50.9674 13.6441 51.0684 13.7807 51.2069 13.9038C51.3088 13.9704 51.3638 14.0457 51.3721 14.1298C51.3898 14.214 51.3932 14.3121 51.3825 14.424C51.3628 14.5077 51.3059 14.577 51.2119 14.6319C51.1273 14.6775 51.0291 14.6996 50.9171 14.6982C50.8051 14.6968 50.7028 14.6629 50.6103 14.5964Z" fill="#656565"/>
</svg>
