<svg width="114" height="77" viewBox="0 0 114 77" fill="none" xmlns="http://www.w3.org/2000/svg">
    <path d="M15.0633 27.6962C14.4851 27.6517 14.1411 27.5448 14.0312 27.3754C13.9399 27.2063 13.8955 27.0284 13.8978 26.8418C13.9946 26.5629 14.1006 26.2936 14.2158 26.0336C14.3497 25.7739 14.4465 25.4951 14.5062 25.1972C14.5652 24.9552 14.6239 24.7319 14.6825 24.5273C14.741 24.3227 14.8091 24.0995 14.8868 23.8578C15.0416 23.4116 15.2164 22.8631 15.4112 22.2121C15.6246 21.5614 15.8473 20.9108 16.0794 20.2602C16.3114 19.6097 16.5141 19.0709 16.6874 18.6436C16.842 18.2162 16.9679 17.8537 17.0649 17.5562C17.1806 17.259 17.2961 16.971 17.4116 16.6924C17.527 16.4139 17.6525 16.0794 17.788 15.689C17.8844 15.4475 17.9712 15.2153 18.0487 14.9922C18.1263 14.7505 18.204 14.5087 18.2817 14.267C18.378 14.0255 18.4649 13.7933 18.5423 13.5702C18.6386 13.3287 18.7256 13.0871 18.8033 12.8454C19.0139 12.4186 19.1963 12.0102 19.3505 11.62C19.5233 11.2301 19.678 10.8027 19.8144 10.3377C19.8911 10.1706 19.8833 10.0492 19.7909 9.97336C19.7172 9.89778 19.6818 9.73866 19.6848 9.49601C19.6689 9.2718 19.7269 9.11384 19.8587 9.02213C20.0094 8.91198 20.1964 8.8863 20.4197 8.94506C20.6803 9.00429 21.0437 9.05546 21.5098 9.09856C21.9947 9.14189 22.4331 9.16599 22.8251 9.17084C23.2359 9.15725 23.4601 9.14136 23.4977 9.12315C23.5915 9.08698 23.9002 9.03479 24.4237 8.96659C24.9475 8.87973 25.5834 8.78493 26.3314 8.68217C27.0794 8.57942 27.8459 8.48622 28.631 8.4026C29.4348 8.3192 30.1451 8.24398 30.762 8.17694C30.9677 8.14215 31.1637 8.14457 31.3499 8.18421C31.5548 8.22408 31.7503 8.26384 31.9365 8.30348C32.1787 8.34381 32.4197 8.47747 32.6596 8.70445C32.8995 8.93144 32.9801 9.20312 32.9015 9.51951C32.8243 9.7239 32.6643 9.83393 32.4214 9.8496C32.1787 9.84659 31.8526 9.80522 31.4429 9.72548C31.4055 9.72502 31.3673 9.79922 31.3281 9.94808C31.2889 10.0969 31.2401 10.2737 31.1815 10.4783C31.1416 10.6832 31.0737 10.897 30.9776 11.1198C30.864 11.2491 30.7302 11.4995 30.5762 11.8709C30.441 12.2426 30.2959 12.6515 30.141 13.0976C29.9862 13.5438 29.8598 13.9529 29.7618 14.325C29.6639 14.6972 29.614 14.9579 29.6121 15.1072C29.3457 15.5146 29.1535 15.9603 29.0356 16.4442C28.9362 16.9284 28.8092 17.3842 28.6546 17.8116C28.635 17.886 28.5571 18.1464 28.4209 18.5928C28.3036 19.0207 28.1572 19.5416 27.9816 20.1555C27.806 20.7693 27.6303 21.3832 27.4547 21.9971C27.2794 22.5923 27.133 23.1039 27.0157 23.5318C26.8984 23.9597 26.8394 24.2016 26.8387 24.2576C26.8154 24.6307 26.7641 25.0128 26.6845 25.4038C26.6237 25.7951 26.5816 26.1773 26.5583 26.5503C26.5761 26.6252 26.5846 26.6907 26.5839 26.7467C26.5835 26.784 26.5457 26.8209 26.4705 26.8573C26.3196 26.9861 26.0668 27.0483 25.7122 27.0439C25.3578 27.0209 25.1346 26.9528 25.0427 26.8396C24.9698 26.6894 24.9061 26.5579 24.8515 26.4452C24.7971 26.3139 24.7802 26.1737 24.8007 26.0246C24.8445 25.5024 24.9163 24.9806 25.0161 24.4591C25.1159 23.9376 25.2061 23.4347 25.2868 22.9503C25.3861 22.4662 25.5035 22.029 25.639 21.6386C25.7745 21.2482 25.8705 21.0347 25.927 20.9981L26.4835 19.0168C26.6958 18.4594 26.8319 18.0224 26.8918 17.7058C26.9519 17.3705 27.012 17.0446 27.0719 16.7279C27.1505 16.4116 27.2862 16.0025 27.4791 15.5009C27.6715 15.0366 27.8266 14.5718 27.9444 14.1065C28.081 13.6229 28.2176 13.1485 28.354 12.6835C28.4902 12.2371 28.6257 11.8468 28.7605 11.5124C28.8956 11.1594 29.0021 10.8527 29.0799 10.5923C29.1765 10.3322 29.2166 10.1086 29.2003 9.92176C28.7892 9.95401 28.4059 9.99593 28.0506 10.0475C27.7139 10.0994 27.3586 10.151 26.9846 10.2024C26.6295 10.2353 26.1902 10.2859 25.6666 10.3541C25.3489 10.3875 24.9281 10.4476 24.4043 10.5345C23.8808 10.6027 23.3945 10.6713 22.9456 10.7404C22.5157 10.7911 22.2447 10.8158 22.1327 10.8144C22.0018 10.8314 21.8893 10.8674 21.7953 10.9222C21.7013 10.9771 21.6537 11.0512 21.6525 11.1445C21.3656 11.701 21.088 12.2669 20.8195 12.8423C20.5512 13.399 20.3112 13.9374 20.0994 14.4575C19.9066 14.9592 19.761 15.4054 19.6629 15.7962C19.6246 15.8704 19.5476 16.0562 19.4319 16.3534C19.3163 16.6507 19.1813 16.9944 19.0272 17.3845C18.873 17.7746 18.7284 18.1462 18.5933 18.4992C18.4583 18.8522 18.3522 19.1309 18.275 19.3353C18.2167 19.5213 18.1974 19.5677 18.2172 19.4746C17.9262 20.3671 17.6841 21.0735 17.491 21.5938C17.3167 22.0957 17.1718 22.4953 17.0561 22.7925C16.9404 23.0898 16.8439 23.3499 16.7664 23.573C16.689 23.796 16.611 24.0658 16.5324 24.3822C16.4167 24.6794 16.3196 24.9862 16.241 25.3026C16.1624 25.619 16.0838 25.9354 16.0052 26.2518C15.9854 26.3449 15.9561 26.4472 15.9174 26.5587C15.8974 26.6705 15.8572 26.9033 15.7968 27.2573C15.7203 27.4057 15.6256 27.5165 15.5126 27.5898C15.4182 27.682 15.2684 27.7174 15.0633 27.6962ZM36.2362 26.334C35.8401 26.6652 35.3804 26.8555 34.857 26.905C34.3524 26.9548 33.8587 26.874 33.3759 26.6627C32.8934 26.4327 32.4962 26.0918 32.1845 25.6399C31.8723 25.2253 31.6727 24.7561 31.5858 24.2324C31.4992 23.6899 31.4985 22.9899 31.5838 22.1322C31.6488 21.4049 31.8911 20.6799 32.3108 19.957C32.7307 19.2155 33.2335 18.559 33.8193 17.9875C34.4237 17.4163 35.0166 17.0222 35.598 16.8054C35.8803 16.6222 36.1147 16.5411 36.3011 16.5621C36.5064 16.5646 36.8142 16.5871 37.2243 16.6295C37.6529 16.6908 37.9692 16.7788 38.1731 16.8933C38.3957 17.008 38.5712 17.1596 38.6996 17.3478C38.9761 17.6313 39.1593 17.9136 39.2491 18.1947C39.3392 18.4572 39.3826 18.7191 39.3794 18.9804C39.2997 19.3901 39.0135 19.8906 38.5208 20.4819C38.047 21.0547 37.4251 21.5231 36.6552 21.8869C36.243 22.0125 35.7943 22.0629 35.3093 22.0383C34.8242 22.0136 34.4244 21.8873 34.1099 21.6594C33.7571 21.5057 33.5234 21.5308 33.4089 21.7347C33.2946 21.92 33.1861 22.3853 33.0836 23.1308C33.0002 23.8392 33.0497 24.3625 33.2322 24.7008C33.4149 25.0204 33.6646 25.2102 33.9812 25.2701C34.3536 25.3494 34.6422 25.4089 34.847 25.4488C35.0708 25.4702 35.3425 25.3896 35.6621 25.2069C35.9631 25.0239 36.151 24.9236 36.2259 24.9058C36.301 24.8694 36.3574 24.8328 36.3952 24.7959C36.4519 24.7406 36.5748 24.6208 36.7637 24.4364C36.896 24.3074 36.9998 24.2153 37.0752 24.1603C37.1507 24.0865 37.2352 24.0502 37.3285 24.0514C37.4218 24.0525 37.5053 24.1002 37.5788 24.1945C37.6525 24.2701 37.7265 24.327 37.8007 24.3653C37.9873 24.3676 38.0233 24.48 37.9085 24.7026C37.8124 24.9254 37.6131 25.1937 37.3105 25.5073C37.0082 25.8022 36.6501 26.0778 36.2362 26.334ZM36.2816 20.3982C36.4881 20.3074 36.7044 20.1794 36.9304 20.0142C37.1567 19.8303 37.3458 19.6366 37.4977 19.4331C37.6684 19.2112 37.7547 19.0256 37.7566 18.8763C37.7598 18.615 37.6411 18.3988 37.4006 18.2278C37.1602 18.0382 36.7966 18.0057 36.3097 18.1303C36.1037 18.1838 35.8686 18.3209 35.6045 18.5416C35.3407 18.7437 35.0858 18.9739 34.8399 19.2322C34.6127 19.4908 34.4232 19.7218 34.2713 19.9253C34.1381 20.129 34.09 20.2497 34.1268 20.2875C34.1817 20.3815 34.3394 20.4581 34.6 20.5174C34.8609 20.5579 35.1501 20.5708 35.4676 20.5561C35.8038 20.5416 36.0752 20.4889 36.2816 20.3982ZM39.2317 33.6237C39.1571 33.6227 39.0637 33.6216 38.9517 33.6202C38.8395 33.6375 38.7378 33.5615 38.6465 33.3924C38.573 33.2982 38.5281 33.1576 38.5117 32.9707C38.5141 32.7841 38.5649 32.4487 38.6642 31.9645C38.7615 31.6484 38.84 31.332 38.9 31.0154C38.9597 30.7174 38.9904 30.4938 38.9923 30.3444C38.9932 30.2698 39.0137 30.1207 39.0538 29.8972C39.1123 29.6926 39.1422 29.5436 39.1433 29.4502C39.2385 29.3021 39.3157 29.0977 39.3749 28.8371C39.4342 28.5764 39.4651 28.3435 39.4676 28.1382C39.4704 27.9142 39.5849 27.7102 39.8112 27.5264C39.813 27.377 39.8433 27.1907 39.9021 26.9674C39.9795 26.7444 40.0187 26.5955 40.0196 26.5209C40.0789 26.2602 40.2059 25.8044 40.4006 25.1535C40.6142 24.4841 40.8662 23.7311 41.1566 22.8947C41.4656 22.0584 41.7651 21.2407 42.055 20.4416C42.3449 19.6424 42.6053 18.9643 42.8362 18.4071C43.0667 17.8872 43.2215 17.4411 43.3008 17.0687C43.399 16.6779 43.4492 16.3892 43.4516 16.2025C43.4525 16.1279 43.4718 16.0721 43.5096 16.0352C43.5476 15.9797 43.6329 15.8781 43.7654 15.7304C43.9544 15.546 44.1137 15.492 44.2435 15.5683C44.3919 15.6448 44.5678 15.759 44.7713 15.9108C44.9176 16.1553 45.0177 16.3619 45.0716 16.5306C45.1442 16.6995 45.1406 16.9888 45.0609 17.3985C45.0574 17.6785 45.0078 17.9206 44.9119 18.1247C44.816 18.3289 44.7301 18.4865 44.654 18.5976C44.5782 18.69 44.5591 18.7271 44.5966 18.7089C45.3663 18.3637 46.0406 18.1854 46.6194 18.1739C47.2172 18.1439 47.7105 18.2527 48.0995 18.5002C48.5073 18.7293 48.8114 19.0504 49.0116 19.4636C49.2119 19.8767 49.3086 20.354 49.3019 20.8953C49.2992 21.1192 49.2492 21.3893 49.1519 21.7055C49.0549 22.003 48.9301 22.2814 48.7776 22.5409C48.6439 22.7819 48.5204 22.9577 48.407 23.0684C48.3323 23.0674 48.2569 23.1318 48.1806 23.2616C48.1045 23.3726 48.0283 23.5024 47.9518 23.6508C47.8001 23.8356 47.5548 24.0472 47.2158 24.2857C46.8958 24.5058 46.5762 24.6885 46.257 24.8339C45.9381 24.9606 45.7043 24.9951 45.5557 24.9372C45.5557 24.9372 45.5275 24.9462 45.4713 24.9642C45.434 24.9637 45.4148 25.0102 45.4136 25.1035C45.4131 25.1408 45.2628 25.223 44.9625 25.3499C44.6625 25.4582 44.3158 25.5659 43.9224 25.6731C43.5293 25.7616 43.1834 25.8039 42.8848 25.8003C42.4928 25.7954 42.2138 25.7173 42.0476 25.5659C42.0098 25.6027 41.9625 25.6582 41.9056 25.7321C41.8673 25.8063 41.8478 25.8714 41.8471 25.9274C41.8457 26.0394 41.7964 26.2535 41.6992 26.5696C41.6208 26.8674 41.5239 27.1555 41.4085 27.4341C41.293 27.7127 41.1886 27.8514 41.0953 27.8503C41.0953 27.8503 41.0763 27.878 41.0383 27.9336C41.0002 27.9891 41.018 28.064 41.0915 28.1582C41.0915 28.1582 41.0809 28.2608 41.0597 28.4659C41.0569 28.6899 41.0079 28.8759 40.9128 29.0241C40.9109 29.1734 40.8801 29.3971 40.8204 29.695C40.7608 29.993 40.6927 30.2161 40.6161 30.3645C40.6134 30.5885 40.5734 30.8027 40.4962 31.0071C40.4374 31.2304 40.3707 31.3416 40.296 31.3407C40.2212 31.3584 40.1731 31.4698 40.1519 31.6749C40.1305 31.8986 40.1192 32.0572 40.118 32.1505C40.0936 32.6169 39.9957 32.9797 39.8245 33.239C39.6533 33.4982 39.4557 33.6264 39.2317 33.6237ZM42.7352 24.3143C42.8845 24.3161 43.1933 24.2546 43.6615 24.1297C44.1298 24.0048 44.6077 23.8521 45.0953 23.6714C45.6018 23.4724 45.9776 23.2717 46.2228 23.0693C46.7134 22.646 47.0927 22.1654 47.3607 21.6273C47.6477 21.0708 47.6356 20.5386 47.3245 20.0307C47.1784 19.7676 46.909 19.6616 46.5164 19.7127C46.1239 19.7452 45.6928 19.8892 45.2229 20.1447C44.7531 20.4003 44.3104 20.7215 43.8949 21.1084C43.6679 21.3483 43.4589 21.6444 43.2679 21.9967C43.0768 22.349 42.9138 22.7017 42.7787 23.0547C42.6624 23.408 42.5933 23.7058 42.5717 23.9482C42.55 24.1907 42.6045 24.3127 42.7352 24.3143ZM53.6692 27.6138C52.8479 27.6036 52.1798 27.2873 51.6648 26.6649C51.15 26.0238 50.9077 25.2368 50.9379 24.3038C50.9836 23.6323 51.1231 22.9153 51.3566 22.1528C51.6089 21.3718 51.9355 20.6291 52.3362 19.9247C52.7372 19.2016 53.1743 18.5723 53.6477 18.0368C54.121 17.5013 54.611 17.1246 55.1178 16.9069C55.3056 16.8159 55.5025 16.7436 55.7085 16.6902C55.9332 16.637 56.1575 16.6117 56.3815 16.6145C56.5868 16.617 56.801 16.657 57.024 16.7345C57.2473 16.7932 57.4332 16.8609 57.5816 16.9374C57.8973 17.072 58.138 17.2336 58.3036 17.4223C58.4693 17.6111 58.6151 17.9022 58.7409 18.2958C58.7925 18.6512 58.8173 18.9035 58.8155 19.0528C58.8137 19.2021 58.7642 19.4255 58.6672 19.723C58.4349 20.3922 58.1384 20.9672 57.7778 21.4481C57.4171 21.9291 56.9361 22.3338 56.3347 22.6624C56.1842 22.7539 56.0059 22.8263 55.7999 22.8798C55.6128 22.9148 55.4166 22.9311 55.2113 22.9285C54.838 22.9239 54.4748 22.8541 54.1218 22.719C53.7877 22.5655 53.5197 22.3475 53.3178 22.065L53.1246 21.8386L53.0378 22.0616C52.845 22.5632 52.6899 23.028 52.5726 23.4559C52.4739 23.8841 52.4224 24.2755 52.418 24.6301C52.4152 24.8541 52.4313 25.069 52.466 25.2747C52.5195 25.4807 52.592 25.659 52.6834 25.8095C52.7567 25.9224 52.877 26.0079 53.0443 26.0659C53.2305 26.1056 53.4262 26.1267 53.6316 26.1292C53.7622 26.1308 53.8929 26.1325 54.0235 26.1341C54.1731 26.1172 54.3135 26.0817 54.4449 26.0273C54.7636 25.9192 55.0171 25.801 55.2053 25.6727C55.4123 25.5445 55.6193 25.4071 55.8265 25.2603L55.9392 25.2057L55.9112 25.2053C56.1365 25.0961 56.3339 24.9866 56.5033 24.8766C56.6913 24.767 56.7853 24.7121 56.7853 24.7121C56.86 24.713 56.9352 24.6673 57.0111 24.5749C57.1613 24.5021 57.3476 24.5324 57.57 24.6658C57.811 24.7995 57.9302 24.969 57.9277 25.1743C57.9079 25.2674 57.822 25.4157 57.6702 25.6191C57.5186 25.8039 57.3484 25.9792 57.1596 26.1449C56.9896 26.3108 56.8484 26.4024 56.7362 26.4196C56.7173 26.4381 56.6515 26.4746 56.5388 26.5292C56.4264 26.5652 56.3513 26.6016 56.3135 26.6384L56.3415 26.6388C56.1707 26.8607 56.0013 26.9706 55.8334 26.9685L55.6094 26.9657C55.5331 27.0955 55.2886 27.2418 54.8759 27.4047C54.4634 27.5489 54.0612 27.6186 53.6692 27.6138ZM55.0053 21.4699C55.3413 21.474 55.6317 21.3843 55.8767 21.2006C56.1406 20.9985 56.3673 20.7773 56.557 20.537C56.9365 20.0376 57.1572 19.555 57.2189 19.0891C57.2996 18.6047 57.2478 18.268 57.0634 18.0791C56.9521 18.0217 56.8498 17.9924 56.7565 17.9913C56.682 17.9717 56.523 17.9977 56.2795 18.0694C56.111 18.1046 55.876 18.2417 55.5743 18.4807C55.2727 18.7196 54.9707 18.9866 54.6684 19.2815C54.3847 19.5767 54.1669 19.826 54.0151 20.0295L53.6438 20.6129C53.7938 20.5588 53.9342 20.5325 54.0648 20.5341C54.2144 20.5173 54.2982 20.5277 54.3164 20.5653C54.3144 20.7333 54.3404 20.8923 54.3946 21.0423C54.4676 21.1738 54.5503 21.2775 54.6427 21.3534C54.7538 21.4294 54.8747 21.4682 55.0053 21.4699ZM60.4249 27.4734C60.2763 27.4155 60.119 27.3016 59.9531 27.1315C59.7874 26.9428 59.6501 26.7264 59.5411 26.4823C59.4321 26.2383 59.3789 26.0136 59.3814 25.8083C59.4773 25.6042 59.603 25.251 59.7586 24.7489C59.9144 24.2281 60.1084 23.6331 60.3407 22.964C60.4926 22.7605 60.6076 22.5192 60.6857 22.2402C60.7825 21.9614 60.8696 21.7104 60.947 21.4874C61.1 21.1906 61.2821 20.8101 61.4932 20.346C61.7045 19.8633 61.9065 19.3804 62.0991 18.8974C62.3107 18.396 62.4932 17.9782 62.6467 17.6441C62.858 17.1613 62.983 16.8642 63.0217 16.7527C63.0607 16.6225 63.09 16.5202 63.1095 16.4457C63.1114 16.2964 63.1502 16.1755 63.226 16.0831C63.3021 15.9721 63.3774 15.917 63.4521 15.9179C63.5277 15.8442 63.6121 15.8079 63.7055 15.809C63.8177 15.7918 63.9111 15.7836 63.9858 15.7845C64.1911 15.7871 64.3667 15.9292 64.5126 16.2111C64.6586 16.4742 64.7303 16.7178 64.7275 16.9418C64.7248 17.1658 64.6368 17.482 64.4638 17.8906C64.3096 18.2807 64.1272 18.6891 63.9166 19.1159C63.7246 19.5429 63.5613 19.9142 63.4268 20.2299C63.2922 20.5456 63.2525 20.7318 63.3078 20.7885C63.3078 20.7885 63.4392 20.7341 63.7019 20.6254C63.9648 20.4979 64.247 20.3241 64.5484 20.1038C64.7551 19.9943 64.9808 19.8571 65.2256 19.6921C65.4703 19.5272 65.7056 19.3714 65.9314 19.2248C66.1574 19.0596 66.3454 18.9593 66.4952 18.9238C66.721 18.7772 66.956 18.6401 67.2003 18.5125C67.4448 18.3662 67.6048 18.2561 67.6804 18.1824C67.9996 18.037 68.2335 17.9932 68.3821 18.0511C68.5494 18.1091 68.7156 18.2512 68.8809 18.4773C69.0832 18.7225 69.1178 18.9376 68.9849 19.1226C68.8521 19.289 68.5413 19.5185 68.0523 19.8111C67.6573 20.0489 67.1778 20.3323 66.6137 20.6614C66.0682 20.9907 65.5792 21.2833 65.1467 21.5393C64.7328 21.7955 64.4975 21.9513 64.4409 22.0066C64.4409 22.0066 64.5138 22.1475 64.6596 22.4294C64.8055 22.7112 64.9517 22.965 65.0983 23.1908C65.2439 23.4913 65.3991 23.7733 65.5638 24.0367C65.7475 24.2816 65.8387 24.4508 65.8376 24.5441C65.9821 24.9379 66.1647 25.2669 66.3854 25.5309C66.6064 25.7764 66.8564 25.9381 67.1355 26.0163C67.4334 26.0759 67.7325 26.0423 68.0328 25.9153C68.4079 25.7706 68.6792 25.7273 68.8465 25.7854C69.0324 25.8437 69.1613 25.9853 69.2332 26.2102C69.306 26.3605 69.3233 26.4727 69.2851 26.5469C69.2657 26.6027 69.1427 26.7411 68.9159 26.9624C68.5569 27.3126 68.1901 27.5321 67.8157 27.6208C67.4599 27.7097 67.1336 27.6777 66.8368 27.5247C66.6501 27.5224 66.4364 27.4451 66.1956 27.2927C65.955 27.1217 65.6597 26.8474 65.3097 26.4697C64.9784 26.0922 64.5649 25.5644 64.0692 24.8862C64.0701 24.8116 64.0341 24.7085 63.961 24.5769C63.9069 24.4269 63.8433 24.2861 63.7702 24.1545C63.6974 24.0042 63.6061 23.8444 63.4961 23.6751C63.3865 23.487 63.3316 23.393 63.3316 23.393C63.3323 23.337 63.3142 23.2901 63.2774 23.2523C63.2594 23.1961 63.2229 23.1303 63.1678 23.0549C63.1314 22.9798 63.0858 22.8953 63.0309 22.8012C62.7334 22.7042 62.5181 22.7576 62.3849 22.9613C62.2517 23.165 62.1091 23.3779 61.957 23.6C61.8606 23.8415 61.735 24.1853 61.5802 24.6314C61.4442 25.0591 61.327 25.4777 61.2286 25.8872C61.1489 26.2969 61.1267 26.5766 61.1622 26.7264C61.1585 27.0251 61.1093 27.2298 61.0146 27.3406C60.9201 27.4328 60.7236 27.4771 60.4249 27.4734ZM70.1278 26.8653C69.977 26.9755 69.762 27.0008 69.4828 26.9414C69.2035 26.8819 68.9802 26.8231 68.8129 26.7651C68.7765 26.6899 68.7402 26.6055 68.704 26.5117C68.6678 26.4179 68.6409 26.3336 68.6231 26.2587C68.6056 26.1651 68.5881 26.0716 68.5706 25.978C68.5718 25.8847 68.5541 25.8005 68.5177 25.7253C68.5744 25.67 68.6218 25.6146 68.6598 25.5591C68.7165 25.5038 68.7731 25.4578 68.8295 25.4212C68.9228 25.4223 69.0255 25.4236 69.1375 25.425C69.2495 25.4264 69.3521 25.4276 69.4455 25.4288C69.5393 25.3926 69.6146 25.3375 69.6715 25.2636C69.7473 25.1712 69.8413 25.1257 69.9532 25.127C70.3671 24.8708 70.7735 24.4651 71.1724 23.91C71.59 23.3552 71.9897 22.7347 72.3715 22.0487C72.772 21.363 73.1256 20.6953 73.4324 20.0457C73.758 19.3777 74.0262 18.8209 74.2371 18.3755C74.2376 18.3382 74.2379 18.3102 74.2381 18.2915C74.2384 18.2729 74.2293 18.2541 74.2108 18.2352C74.0797 18.2709 73.9393 18.3065 73.7895 18.342C73.6399 18.3588 73.4901 18.3943 73.3401 18.4484C73.3212 18.4669 73.293 18.4852 73.2554 18.5034C73.2179 18.5216 73.1896 18.5399 73.1707 18.5583C72.9634 18.7238 72.6921 18.7671 72.3571 18.6883C72.0407 18.6097 71.8187 18.4483 71.691 18.204C71.6546 18.1289 71.6181 18.0631 71.5814 18.0066C71.5448 17.9502 71.499 17.8843 71.4439 17.8089C71.5206 17.6419 71.6346 17.4846 71.7857 17.3371C71.9558 17.1712 72.1344 17.0707 72.3215 17.0357C72.8269 16.93 73.3225 16.8521 73.8085 16.8021C74.3134 16.7337 74.8176 16.7212 75.3211 16.7648C75.8246 16.8084 76.3178 16.9265 76.8008 17.1191C76.8939 17.139 76.9777 17.1587 77.0521 17.1783C77.1265 17.1978 77.2007 17.2361 77.2747 17.293C77.3858 17.3691 77.4967 17.4544 77.6076 17.5492C77.7184 17.6439 77.8199 17.7385 77.9121 17.8329C78.0414 17.9465 78.1425 18.0691 78.2156 18.2007C78.2886 18.3323 78.3334 18.4822 78.35 18.6504C78.385 18.8375 78.4013 19.0337 78.3987 19.2391C78.4149 19.4446 78.403 19.6498 78.3631 19.8547C78.264 20.3201 78.1078 20.8783 77.8944 21.529C77.6999 22.1613 77.5251 22.7099 77.37 23.1746C77.137 23.8998 76.9329 24.5507 76.7578 25.1272C76.5828 25.6851 76.4174 26.2338 76.2614 26.7732C76.0178 26.8449 75.7846 26.8326 75.5618 26.7365C75.3389 26.6404 75.1447 26.498 74.979 26.3093C74.9076 26.0471 74.8732 25.804 74.876 25.58C74.879 25.3373 74.9473 25.0955 75.081 24.8545C75.2149 24.5948 75.3124 24.2599 75.3735 23.85C75.4345 23.4401 75.5599 23.1149 75.7496 22.8746C75.7878 22.8004 75.8073 22.7353 75.808 22.6793C75.8094 22.5673 75.8493 22.3531 75.9279 22.0367C76.0252 21.7206 76.1322 21.3672 76.2491 20.9766C76.3661 20.5674 76.4735 20.186 76.5712 19.8325C76.6876 19.4793 76.7656 19.2095 76.8053 19.0233C76.844 18.9118 76.8453 18.8091 76.8091 18.7154C76.7916 18.6218 76.7835 18.519 76.7849 18.407C76.6365 18.3305 76.4225 18.2719 76.143 18.2311C75.8822 18.1905 75.7037 18.2817 75.6076 18.5045C75.5885 18.5416 75.5692 18.588 75.5499 18.6438C75.5494 18.6811 75.5396 18.7183 75.5205 18.7554C75.3654 19.2202 75.1545 19.6656 74.8879 20.0917C74.64 20.518 74.4087 21.1032 74.1941 21.8473C74.1356 22.0519 74.0492 22.2468 73.9349 22.4321C73.8395 22.5989 73.7532 22.7845 73.676 22.9889C73.6757 23.0076 73.6662 23.0261 73.6473 23.0446C73.6471 23.0632 73.6375 23.0818 73.6186 23.1002C73.6184 23.1189 73.6088 23.1374 73.5899 23.1559C73.4572 23.3223 73.3337 23.4981 73.2194 23.6833C73.1239 23.8502 73.0191 24.0262 72.9048 24.2115C72.581 24.7302 72.155 25.2103 71.6269 25.6518C71.1174 26.0935 70.6177 26.498 70.1278 26.8653ZM82.9815 22.88C82.7296 23.6236 82.4404 24.3668 82.1138 25.1095C81.7873 25.8522 81.5446 26.6052 81.3858 27.3686C81.3655 27.4991 81.3271 27.5919 81.2704 27.6472C81.2137 27.7025 81.1198 27.748 80.9887 27.7838C80.6513 27.8916 80.4181 27.8794 80.2891 27.7471C80.1603 27.5962 79.9945 27.4168 79.7917 27.2089C79.7387 26.9656 79.723 26.7227 79.7447 26.4803C79.785 26.2381 79.8626 26.0057 79.9773 25.7831C80.2069 25.3379 80.4084 24.8924 80.5819 24.4465C80.7554 24.0006 80.9198 23.5452 81.0748 23.0805C80.9652 22.8924 80.8554 22.7137 80.7455 22.5443C80.6544 22.3565 80.5634 22.1687 80.4724 21.9809C80.6257 21.6655 80.7588 21.4618 80.872 21.3698C81.0038 21.2781 81.2754 21.2068 81.6867 21.1559C81.8577 20.9153 82.0207 20.5626 82.1758 20.0979C82.3496 19.6333 82.5142 19.15 82.6698 18.6479C82.7869 18.2386 82.9036 17.8574 83.02 17.5041C83.1553 17.1324 83.2898 16.8167 83.4237 16.557C83.5763 16.2976 83.7371 16.1222 83.9063 16.031C84.074 16.0517 84.2975 16.0918 84.5768 16.1513C84.8561 16.2107 85.0038 16.3432 85.0199 16.5488C85.055 16.7359 85.0234 17.0248 84.9252 17.4157C84.8273 17.7878 84.7008 18.2063 84.5457 18.6711C84.3908 19.1172 84.2362 19.5446 84.0818 19.9534C83.9463 20.3438 83.8398 20.6505 83.7624 20.8735C84.0797 20.8775 84.4156 20.8816 84.7703 20.886C85.1249 20.8904 85.4614 20.8572 85.7796 20.7865C86.0043 20.7333 86.2287 20.6987 86.4529 20.6828C86.6771 20.6669 86.9106 20.6605 87.1532 20.6635L86.5711 22.4484C86.4218 22.4466 86.2723 22.454 86.1228 22.4709C85.9921 22.4692 85.8518 22.4955 85.7018 22.5497C85.308 22.6941 84.878 22.7448 84.4118 22.7017C83.9456 22.6586 83.4688 22.7181 82.9815 22.88ZM91.6164 17.5264C92.0814 17.6629 92.4244 17.8538 92.6454 18.0992C92.8663 18.3446 93.0393 18.7015 93.1642 19.1697C93.3955 20.0873 93.3746 21.0205 93.1015 21.9692C92.8473 22.8994 92.4351 23.781 91.8647 24.6141C91.2946 25.4284 90.6605 26.1299 89.9625 26.7187C89.6606 26.9763 89.331 27.2149 88.9736 27.4345C88.6164 27.6354 88.2509 27.7523 87.8772 27.785C87.5036 27.799 87.1225 27.673 86.7338 27.4068C86.4563 27.198 86.1891 26.9147 85.9322 26.5568C85.6755 26.1803 85.5587 25.8148 85.5818 25.4604C85.6018 25.3486 85.6124 25.2461 85.6136 25.1528C85.6149 25.0408 85.5977 24.9286 85.5617 24.8161C85.4875 24.7778 85.4508 24.7307 85.4515 24.6747C85.4711 24.6003 85.4999 24.5353 85.5379 24.4798C85.6314 24.4623 85.6693 24.4161 85.6516 24.3412C85.6339 24.2663 85.6159 24.2101 85.5977 24.1725C85.5435 24.0225 85.5559 23.7799 85.6347 23.4449C85.7137 23.0912 85.8113 22.747 85.9275 22.4124C86.0625 22.0594 86.159 21.8086 86.2168 21.66C86.4855 21.0659 86.8007 20.4911 87.1622 19.9355C87.5238 19.38 87.95 18.8812 88.4408 18.4392C88.9317 17.9973 89.4866 17.6588 90.1055 17.4237C90.462 17.2788 90.7244 17.198 90.8926 17.1815C91.061 17.1462 91.3023 17.2612 91.6164 17.5264ZM90.1582 24.4809C90.5378 23.9816 90.843 23.4533 91.0739 22.8961C91.3235 22.3392 91.4987 21.7533 91.5997 21.1385C91.7193 20.5239 91.7069 20.0198 91.5624 19.6259C91.4181 19.2135 91.1688 18.9957 90.8144 18.9726C90.46 18.9496 90.0088 19.2054 89.4608 19.7399C89.1393 20.072 88.8352 20.5163 88.5483 21.0728C88.2616 21.6106 88.0119 22.1769 87.7992 22.7716C87.5867 23.3477 87.4124 23.8589 87.2762 24.3053C87.198 24.5843 87.1566 24.9198 87.1517 25.3118C87.1658 25.6853 87.2648 25.9759 87.449 26.1836C87.6517 26.3914 87.9785 26.3861 88.4292 26.1677C88.7859 26.0041 89.1064 25.756 89.3905 25.4235C89.6746 25.091 89.9305 24.7768 90.1582 24.4809ZM99.6026 27.678C99.4356 27.6013 99.2686 27.5152 99.1018 27.4198C98.9536 27.3246 98.834 27.1831 98.743 26.9953C98.5965 26.7695 98.5158 26.4978 98.5011 26.1803C98.505 25.863 98.5191 25.4804 98.5433 25.0327C98.5442 24.958 98.5835 24.7998 98.6612 24.5581C98.7388 24.3164 98.8261 24.0561 98.9228 23.7773C99.0385 23.48 99.135 23.2292 99.2122 23.0248C99.2896 22.8018 99.3284 22.6809 99.3287 22.6622C99.1416 22.6973 98.9821 22.7606 98.8503 22.8523C98.7185 22.944 98.5867 23.0358 98.4548 23.1275C98.2659 23.3118 98.0116 23.4953 97.692 23.6781C97.3724 23.8608 97.0813 23.9972 96.8188 24.0873C96.6313 24.1597 96.3703 24.1284 96.0359 23.9936C95.7205 23.8404 95.4897 23.6322 95.3436 23.369C95.2892 23.2376 95.2441 23.1157 95.2081 23.0033C95.1911 22.8724 95.174 22.7415 95.157 22.6106C95.0899 21.9938 95.2 21.3977 95.4871 20.8226C95.7171 20.3401 95.9563 19.867 96.2047 19.4033C96.4534 18.921 96.6926 18.448 96.9224 17.9841C97.0175 17.8359 97.1126 17.6971 97.2075 17.5676C97.3027 17.4194 97.3699 17.2709 97.4091 17.1221C97.4284 17.0663 97.4854 16.983 97.5802 16.8722C97.6749 16.7613 97.7782 16.7066 97.8902 16.708C98.0953 16.7292 98.2814 16.7782 98.4484 16.8549C98.6344 16.9132 98.7914 17.0458 98.9196 17.2528C99.0299 17.3848 99.0841 17.5348 99.082 17.7028C99.0802 17.8521 99.0034 18.0192 98.8518 18.204C98.4911 18.6849 98.1581 19.1942 97.8528 19.7318C97.5661 20.2696 97.2888 20.8075 97.0208 21.3456C96.9443 21.494 96.8767 21.6705 96.8182 21.8751C96.7597 22.0797 96.7479 22.2756 96.7829 22.4627C97.0629 22.4662 97.4476 22.3029 97.9371 21.973C98.4268 21.6243 98.945 21.2294 99.4919 20.7881C100.039 20.3468 100.52 19.9608 100.934 19.6299C101.368 19.2805 101.747 18.8559 102.07 18.3558C102.165 18.2077 102.279 18.097 102.41 18.024C102.542 17.9323 102.72 17.8785 102.944 17.8626C103 17.882 103.074 17.9202 103.167 17.9774C103.26 18.0345 103.362 18.0824 103.473 18.1212C103.564 18.3463 103.646 18.5247 103.719 18.6562C103.81 18.788 103.846 18.9192 103.826 19.0496C103.805 19.18 103.672 19.3744 103.426 19.6327C103.333 19.6502 103.172 19.8069 102.945 20.1028C102.717 20.38 102.489 20.6945 102.261 21.0464C102.033 21.3796 101.861 21.6575 101.747 21.8801C101.689 21.9727 101.613 22.0745 101.519 22.1853C101.443 22.2777 101.367 22.3888 101.291 22.5185L100.195 25.0811C100.174 25.2489 100.144 25.4352 100.104 25.6401C100.064 25.8262 100.081 25.9758 100.154 26.0887C100.304 26.0906 100.435 26.0735 100.547 26.0376C100.659 26.0016 100.752 26.0494 100.825 26.181C100.915 26.4808 100.959 26.696 100.957 26.8267C100.975 26.9389 100.841 27.152 100.557 27.4658C100.293 27.7425 99.9743 27.8133 99.6026 27.678ZM110.799 28.1806C110.615 27.9916 110.432 27.7373 110.249 27.4177C110.066 27.0794 109.922 26.6949 109.815 26.2642C109.78 26.1144 109.763 25.9089 109.767 25.6476C109.789 25.3865 109.791 25.1999 109.774 25.0876C109.716 25.2176 109.621 25.3564 109.488 25.5041C109.375 25.6334 109.261 25.744 109.148 25.836C109.073 25.9097 108.903 26.0569 108.639 26.2777C108.375 26.4798 108.112 26.6445 107.849 26.7719C107.228 27.1563 106.712 27.3646 106.301 27.3968C105.908 27.4293 105.538 27.2194 105.189 26.767C104.893 26.5207 104.682 26.2474 104.555 25.9471C104.446 25.6471 104.451 25.2365 104.57 24.7152C104.615 24.0624 104.716 23.4289 104.873 22.8148C105.031 22.1821 105.349 21.3459 105.828 20.3065C106.23 19.546 106.536 18.9898 106.745 18.6377C106.955 18.2669 107.089 18.0445 107.145 17.9706C107.427 17.8807 107.66 17.8929 107.845 18.0072C108.031 18.1029 108.14 18.2816 108.174 18.5433C108.284 18.7314 108.262 19.0485 108.107 19.4946C107.971 19.9409 107.73 20.4887 107.386 21.1378C107.117 21.7692 106.867 22.4008 106.635 23.0326C106.422 23.6647 106.294 24.2045 106.251 24.652C106.208 25.0995 106.317 25.3716 106.577 25.4681C106.744 25.5635 107.033 25.5391 107.446 25.3949C107.877 25.2508 108.357 24.8834 108.887 24.2926C109.436 23.702 109.97 22.8032 110.489 21.5962C110.643 21.2248 110.759 20.8995 110.837 20.6204C110.915 20.3227 110.966 19.9967 110.989 19.6422C110.955 19.4178 110.966 19.2219 111.024 19.0546C111.101 18.8689 111.253 18.7121 111.478 18.5842C111.554 18.4918 111.658 18.4091 111.789 18.336C111.921 18.2443 112.005 18.2454 112.041 18.3392L112.49 18.3167C112.565 18.299 112.611 18.3462 112.628 18.4584C112.664 18.5522 112.728 18.637 112.821 18.7128C113.024 18.8834 113.075 19.248 112.975 19.8068C112.875 20.3656 112.604 21.1463 112.162 22.149C111.798 22.9098 111.548 23.4855 111.413 23.8758C111.296 24.2664 111.226 24.6482 111.203 25.0213C111.198 25.3573 111.26 25.6754 111.387 25.9757C111.514 26.2759 111.716 26.5491 111.993 26.7952C112.196 26.9284 112.307 27.0791 112.323 27.2473C112.358 27.4158 112.365 27.6119 112.344 27.8356C112.304 28.0032 112.191 28.1418 112.003 28.2514C111.834 28.3427 111.637 28.3869 111.413 28.3842C111.189 28.3814 110.985 28.3135 110.799 28.1806Z" fill="#656565"/>
    <path d="M0.319901 68.8126C-0.0485464 69.1084 -0.107451 69.6469 0.188335 70.0153L5.00844 76.0195C5.30423 76.388 5.84269 76.4469 6.21114 76.1511C6.57959 75.8553 6.63849 75.3168 6.34271 74.9484L2.05817 69.6113L7.39524 65.3268C7.76369 65.031 7.82259 64.4925 7.52681 64.1241C7.23102 63.7556 6.69255 63.6967 6.32411 63.9925L0.319901 68.8126ZM0.855469 69.4797L0.762437 70.3302C9.05855 71.2377 28.4431 66.8704 41.2509 42.8676L40.4961 42.4648L39.7413 42.0621C27.2591 65.4548 8.54196 69.46 0.9485 68.6293L0.855469 69.4797Z" fill="#656565"/>
</svg>
